<svg width="187" height="130" viewBox="0 0 187 130" fill="none" xmlns="http://www.w3.org/2000/svg">
<g clip-path="url(#clip0_2_967)">
<path d="M127.585 19.8514V59.6601L93.2413 79.5196C90.3311 77.8891 87.4698 76.1934 84.584 74.5384C81.6983 72.8835 78.8777 71.2774 76.0245 69.5899L67.3754 64.6005L58.8566 59.709C58.7507 58.959 58.7262 21.0987 58.8566 19.8758L93.2413 0L127.585 19.8514ZM93.2413 4.32083C82.9699 10.2396 72.7475 16.142 62.5739 22.0281C62.5739 22.2074 62.5739 22.3216 62.5739 22.4357C62.5739 34.0612 62.5739 45.6867 62.5739 57.3122C62.5673 57.339 62.5673 57.3669 62.5739 57.3937C62.6013 57.451 62.634 57.5056 62.6717 57.5568L70.2285 61.9265L77.8587 66.337C80.4347 67.8208 83.0026 69.3127 85.5786 70.7883C88.1546 72.2639 90.6572 73.7476 93.1761 75.158C94.1707 74.7015 123.338 57.8339 123.852 57.4182C123.941 56.4888 123.925 22.6966 123.852 21.9955L93.2413 4.32083Z" fill="white"/>
<path d="M93.2414 6.87256C84.1547 12.1445 75.1007 17.4056 66.0793 22.6558C65.9805 22.7205 65.8901 22.7972 65.8102 22.8841C66.4868 23.414 84.0297 33.4824 84.8205 33.8248C84.8619 33.7202 84.8894 33.6105 84.902 33.4987C84.902 32.2513 84.902 30.9959 84.902 29.7485C84.9113 29.6148 84.8816 29.4812 84.8165 29.364C84.7513 29.2467 84.6536 29.1509 84.5352 29.0882L84.1439 28.8762L74.655 23.3896L73.8399 22.8841L78.731 19.9981L83.508 17.2263L88.3584 14.3973C89.9806 13.4598 91.611 12.4733 93.2414 11.6092L112.7 22.7537C109.048 24.9385 105.428 26.9767 101.899 29.08C101.825 29.667 101.776 32.7568 101.842 33.3275C101.867 33.4596 101.908 33.5883 101.964 33.7106L102.852 33.2052L114.722 26.3326L120.143 23.1857C120.33 23.0716 120.599 23.0308 120.624 22.6966L93.2414 6.87256Z" fill="white"/>
<path d="M100.578 45.1894C98.1325 43.779 95.6869 42.3523 93.2414 40.9501L71.1497 53.6843C71.5166 53.9126 71.7367 54.0593 71.9649 54.1898L81.7472 59.8965C82.9781 60.6139 84.1928 61.3395 85.4481 62.0406C85.6438 62.1548 85.8231 62.3586 86.0921 62.2281C86.2351 61.0394 86.2351 59.8379 86.0921 58.6492L77.6631 53.7577C78.9837 52.9424 80.288 52.2087 81.5678 51.4587L85.4155 49.2249L89.3448 46.9422L93.225 44.7084L108.339 53.5049C108.412 53.5049 108.453 53.6191 108.559 53.7332C107.678 54.3284 106.757 54.8093 105.877 55.323C104.996 55.8366 104.018 56.3909 103.105 56.9535C102.192 57.516 101.287 57.9562 100.415 58.584C100.415 59.7335 100.415 60.8585 100.415 61.9836C100.415 62.0569 100.488 62.1385 100.529 62.2118C101.271 61.8939 114.534 54.2305 115.203 53.7169C112.757 52.2576 110.311 50.8717 107.866 49.4613C105.42 48.0509 103.024 46.5998 100.578 45.1894Z" fill="white"/>
<path d="M94.1299 50.7901C95.4424 51.5402 96.7141 52.2821 98.0184 53.0728C98.0184 57.2143 98.0184 61.3422 98.0184 65.4565C98.3282 65.5707 98.5075 65.3587 98.695 65.2527L106.668 60.6954L116.727 54.9398L117.42 54.5321C117.518 54.2188 117.549 53.8881 117.51 53.562C117.51 48.9803 117.51 44.4067 117.51 39.825C117.51 37.5912 117.55 35.3656 117.567 33.1318V32.3002C117.241 32.1372 117.061 32.3573 116.866 32.4633C115.105 33.4497 113.352 34.4607 111.599 35.4553L107.254 37.901C107.002 38.0478 106.733 38.1782 106.488 38.3005C105.097 37.6289 103.782 36.8089 102.567 35.8547C108.898 32.2513 115.208 28.6615 121.496 25.0853C121.814 25.2483 121.724 25.4847 121.724 25.6722C121.724 27.7837 121.724 29.8952 121.724 32.0067C121.724 32.6019 121.724 33.197 121.724 33.7922C121.724 36.6455 121.724 39.4989 121.667 42.3523C121.634 46.9014 121.607 51.4505 121.586 55.9996V56.7578C121.17 57.0757 94.8391 72.0845 94.2033 72.3617C94.1035 72.3791 94.0015 72.3791 93.9017 72.3617C93.9017 72.0845 93.9017 71.8236 93.9017 71.5464C93.9017 66.6984 93.9207 61.8504 93.9587 57.0024C93.9587 55.3066 93.9587 53.6109 93.9587 51.9152C93.9281 51.532 93.9867 51.1469 94.1299 50.7901Z" fill="white"/>
<path d="M79.4484 38.219C75.8289 36.1319 72.2747 34.0449 68.7449 32.0231C68.6389 32.0883 68.6063 32.0964 68.59 32.1209C68.5807 32.1473 68.5807 32.176 68.59 32.2024V54.312L68.6471 54.3936C68.6471 54.3936 68.6471 54.4506 68.7042 54.4588L87.2171 65.1793L87.6818 65.4402H87.9019C88.0731 65.2283 87.9915 64.9511 87.9915 64.6983C87.9915 61.1004 88.0051 57.5024 88.0323 53.9044V52.9669C89.2891 52.1074 90.6173 51.3574 92.0023 50.7249C92.0023 50.7249 92.0593 50.7249 92.0756 50.7249C92.092 50.7249 92.0756 50.7738 92.0756 50.8065C92.0756 50.8391 92.0756 51.1 92.0756 51.2467C92.0756 55.5349 92.0621 59.8177 92.0349 64.0951C92.0349 64.2174 92.0349 64.3315 92.0349 64.4538C92.0079 64.5994 91.9888 64.7463 91.9778 64.894C91.9778 67.4213 91.9778 69.9404 91.9778 72.4269C91.6843 72.6307 91.5213 72.4269 91.3583 72.3372C89.6871 71.3752 88.0242 70.397 86.353 69.4268L71.7856 60.9645L64.8483 56.9372C64.7331 56.8727 64.6215 56.8019 64.5141 56.7252C64.4826 56.5309 64.4635 56.3349 64.457 56.1382C64.457 52.1543 64.457 48.1678 64.457 44.1785C64.457 42.8415 64.457 41.5044 64.457 40.1674L64.5548 25.6315C64.5548 25.4277 64.5549 25.2239 64.5956 24.9956C64.9288 25.0354 65.2432 25.1714 65.5005 25.3869L74.1333 30.4089L82.6031 35.3004C82.8974 35.4201 83.1558 35.6139 83.3531 35.8629C82.1059 36.7434 80.8016 37.4363 79.4484 38.219Z" fill="white"/>
<path d="M92.312 13.9816L91.9452 14.1935L91.4805 14.4626L77.5082 22.4602C77.4812 22.4722 77.4585 22.4921 77.443 22.5173C77.4394 22.5688 77.4394 22.6206 77.443 22.6722C78.4538 23.2673 79.4891 23.895 80.5733 24.4657L83.3776 22.8352C84.3069 22.2971 85.228 21.7509 86.1574 21.2047C87.0867 20.6585 87.9671 20.096 88.9208 19.6639C88.9861 19.7535 89.0513 19.8025 89.0513 19.8514V37.526C88.7823 37.6891 88.5377 37.8521 88.2768 37.9989L81.3233 41.9936L74.2067 46.0699C74.0053 46.171 73.7985 46.2608 73.5871 46.3389C73.5464 43.1431 73.5871 40.0289 73.5871 36.8738C72.5111 36.3032 70.3264 35.1047 70.2693 35.0558C70.2123 35.0069 70.2693 35.1455 70.2693 35.2107V36.026C70.2693 39.1511 70.2693 42.2735 70.2693 45.3932C70.2693 47.415 70.2693 49.4396 70.2693 51.4668C70.2693 51.6543 70.1796 51.8745 70.3916 52.0212C71.1497 51.7114 91.7169 39.8903 92.4017 39.3685V38.7163C92.4017 34.8738 92.4017 31.0366 92.4017 27.2049C92.4017 24.6777 92.4017 22.1504 92.4017 19.6231V15.4898L92.312 13.9816Z" fill="white"/>
<path d="M94.0565 13.9816L94.4234 14.1935L94.888 14.4626L108.852 22.4602C108.879 22.4722 108.902 22.4921 108.917 22.5173C108.917 22.5173 108.917 22.5662 108.917 22.6722C107.907 23.2673 106.879 23.895 105.787 24.4657L102.983 22.8352C102.062 22.2971 101.141 21.7509 100.203 21.2047C99.2656 20.6585 98.4015 20.096 97.4396 19.6639C97.3744 19.7535 97.3092 19.8025 97.3092 19.8514V37.526L98.0836 37.9989C100.399 39.3277 109.782 44.7084 112.162 46.0617C112.362 46.1659 112.569 46.2558 112.781 46.3307C112.781 43.135 112.781 40.0207 112.781 36.8657C113.849 36.295 116.042 35.0966 116.091 35.0477C116.14 34.9988 116.091 35.1373 116.091 35.2026C116.091 35.4553 116.091 49.3961 116.091 51.4261C116.091 51.6136 116.173 51.8337 115.969 51.9804C115.211 51.6706 94.6353 39.8495 93.9587 39.3277V38.6755C93.9587 34.833 93.9451 30.9959 93.918 27.1642V19.5823C93.918 18.1964 93.918 16.8186 93.918 15.4409L94.0565 13.9816Z" fill="white"/>
<path d="M38.9253 96.3056C38.5309 94.5602 37.7817 92.9146 36.7243 91.4712C35.9949 90.5325 35.1936 89.6521 34.3276 88.8379C34.1776 88.6934 34.0198 88.5573 33.8548 88.4303C31.0184 86.296 27.4818 85.3092 23.9502 85.6666C21.6836 85.8447 19.5068 86.6305 17.6488 87.9411C16.2782 88.8896 15.0628 90.0446 14.0457 91.3652C12.4965 93.4195 11.6068 95.8955 11.4942 98.466C11.4045 100.251 11.4289 102.037 11.4208 103.822C11.4208 106.765 11.4208 109.708 11.4208 112.651C11.3538 112.981 11.4027 113.324 11.5594 113.622C11.668 113.656 11.7801 113.678 11.8936 113.687C12.9278 113.677 13.9376 113.371 14.804 112.806C15.6705 112.242 16.3577 111.441 16.7847 110.499C17.1168 109.67 17.2777 108.783 17.2575 107.89C17.2575 105.07 17.3065 102.241 17.2575 99.4199C17.1679 95.5148 20.7384 91.5853 24.4557 91.4304C25.4336 91.35 26.418 91.4215 27.374 91.6424C28.4656 91.9472 29.4835 92.4718 30.3652 93.1839C31.2469 93.8961 31.9739 94.7808 32.5016 95.7839C33.143 96.9889 33.4578 98.3408 33.4146 99.7052C33.4146 102.559 33.4146 105.415 33.4146 108.274C33.3992 109.495 33.8012 110.686 34.5542 111.648C35.3073 112.61 36.3662 113.286 37.5558 113.564C38.0859 113.719 38.6464 113.739 39.1861 113.622C39.1861 113.312 39.2432 113.051 39.2432 112.806C39.2432 108.143 39.2432 103.477 39.2432 98.8084C39.2548 97.9634 39.1478 97.1209 38.9253 96.3056Z" fill="white"/>
<path d="M108.95 93.648C108.468 92.5567 107.806 91.5537 106.994 90.6804C106.291 89.7956 105.486 88.9966 104.597 88.2999C101.806 86.2599 98.3603 85.3222 94.9207 85.6666C92.6866 85.837 90.5376 86.5965 88.6926 87.8678C86.9819 89.0106 85.5182 90.4855 84.3884 92.205C83.0241 94.4063 82.3197 96.9527 82.3586 99.5422C82.3586 103.618 82.3586 107.63 82.3586 111.673C82.3586 112.146 82.3586 112.627 82.3586 113.1C82.3811 113.255 82.4194 113.408 82.4727 113.556C82.5469 113.586 82.6232 113.611 82.701 113.63C82.7605 113.638 82.8208 113.638 82.8803 113.63C83.626 113.618 84.3609 113.451 85.0378 113.138C85.7146 112.824 86.3182 112.373 86.8095 111.812C87.7174 110.806 88.2021 109.489 88.1627 108.135C88.1627 105.192 88.1627 102.249 88.1627 99.3058C88.1528 98.8911 88.1801 98.4764 88.2443 98.0666C88.4882 96.7146 89.0623 95.4439 89.9156 94.3672C90.7689 93.2906 91.8749 92.4414 93.1354 91.8952C93.5945 91.6805 94.0839 91.5375 94.5864 91.4712C95.2024 91.3883 95.8236 91.3502 96.4451 91.3571C98.3402 91.3668 100.161 92.0952 101.54 93.3952C102.445 94.1962 103.164 95.1857 103.645 96.2941C104.127 97.4026 104.36 98.6031 104.328 99.8113C104.328 102.608 104.328 105.404 104.328 108.2C104.318 109.275 104.631 110.329 105.225 111.225C105.597 111.819 106.087 112.33 106.665 112.727C107.242 113.124 107.895 113.398 108.583 113.532C109.075 113.679 109.599 113.679 110.091 113.532C110.091 113.165 110.091 112.839 110.091 112.513C110.091 108.021 110.091 103.545 110.091 99.0449C110.074 97.1879 109.686 95.353 108.95 93.648Z" fill="white"/>
<path d="M65.0521 85.7563H47.656C46.8659 85.7332 46.0953 86.0038 45.4931 86.5157C44.8909 87.0277 44.4997 87.7446 44.3952 88.5282C44.3448 88.8517 44.323 89.1791 44.33 89.5065C44.33 95.9551 44.33 102.412 44.33 108.861C44.3186 109.591 44.4734 110.315 44.7826 110.978C45.0919 111.64 45.5476 112.224 46.1153 112.684C46.561 113.064 47.0814 113.347 47.643 113.514C48.2046 113.681 48.7949 113.729 49.376 113.654C49.376 113.23 49.376 112.904 49.376 112.586C49.376 109.578 49.376 106.578 49.376 103.57C49.3445 103.429 49.3434 103.284 49.373 103.143C49.4025 103.003 49.4619 102.87 49.5472 102.754H50.3624C52.4737 102.754 54.5851 102.754 56.6964 102.754C57.4648 102.783 58.2299 102.639 58.9353 102.333C59.6406 102.026 60.2684 101.566 60.7724 100.985C61.1789 100.568 61.4781 100.059 61.6443 99.5008C61.8104 98.9427 61.8385 98.3526 61.7261 97.7813C61.5427 97.7474 61.3577 97.7229 61.1718 97.7079H59.8186C56.6394 97.7079 53.452 97.7079 50.2727 97.7079C49.9874 97.7079 49.6777 97.8057 49.4086 97.5448C49.4086 97.447 49.4086 97.3247 49.4086 97.2106C49.4086 95.5801 49.4086 93.974 49.4086 92.3925C49.3922 92.2162 49.3922 92.0388 49.4086 91.8625C49.4451 91.5945 49.5699 91.3463 49.7633 91.1573C49.9568 90.9683 50.2078 90.8492 50.4765 90.819C50.7725 90.8026 51.0691 90.8026 51.3651 90.819H59.2154C59.9816 90.819 60.7561 90.7457 61.5305 90.7293C62.1243 90.7007 62.7066 90.5548 63.2439 90.3002C63.7811 90.0455 64.2627 89.6871 64.6608 89.2456C65.0475 88.873 65.3567 88.4277 65.5707 87.9352C65.7848 87.4427 65.8994 86.9128 65.9081 86.3759C65.899 86.1969 65.8717 86.0194 65.8265 85.846C65.5249 85.7889 65.2885 85.7563 65.0521 85.7563Z" fill="white"/>
<path d="M154.552 85.6503H128.172C128.084 85.6668 127.999 85.697 127.92 85.74C127.809 86.0819 127.809 86.4498 127.92 86.7917C128.065 87.7507 128.486 88.6467 129.131 89.3705C129.777 90.0943 130.619 90.6146 131.555 90.8679C132.162 91.0072 132.783 91.0729 133.406 91.0636C134.865 91.0636 136.316 91.0636 137.775 91.0636C138.076 91.0179 138.383 91.0545 138.664 91.1696C138.779 91.5356 138.81 91.9231 138.753 92.3028C138.753 98.9552 138.753 105.61 138.753 112.268C138.753 112.537 138.753 112.806 138.753 113.084C138.753 113.361 138.81 113.418 138.851 113.63C139.748 113.695 140.604 113.679 141.46 113.63C142.36 113.685 143.264 113.655 144.158 113.54C144.158 113.149 144.158 112.806 144.158 112.456V94.1452C144.158 93.33 144.158 92.5147 144.158 91.6506C144.175 91.4634 144.208 91.2779 144.256 91.0962H149.367C150.748 91.1348 152.093 90.6582 153.141 89.7592C153.664 89.3144 154.086 88.7625 154.377 88.1409C154.668 87.5192 154.822 86.8422 154.829 86.1558C154.822 86.0158 154.803 85.8767 154.772 85.74C154.702 85.7032 154.628 85.6731 154.552 85.6503Z" fill="white"/>
<path d="M184.127 85.6667C182.961 85.5311 181.78 85.6168 180.646 85.9194C178.135 88.9358 175.608 91.9767 173.008 95.091C172.828 94.9035 172.698 94.7812 172.592 94.6507C171.337 93.1099 170.073 91.5691 168.826 90.012C167.934 88.925 167.057 87.8026 166.193 86.645C165.986 86.3712 165.723 86.144 165.423 85.9783C165.122 85.8125 164.79 85.7119 164.448 85.683C163.618 85.6218 162.784 85.6218 161.954 85.683C161.483 85.7379 161.022 85.8587 160.584 86.0417C160.307 86.1461 160.057 86.3104 159.851 86.5227C159.443 86.9548 159.533 87.2319 159.802 87.5417C159.883 87.6314 159.956 87.7292 160.03 87.8189C163.236 91.9495 166.443 96.0801 169.649 100.211C169.798 100.374 169.913 100.566 169.986 100.775C170.059 100.983 170.088 101.205 170.073 101.425C170.073 101.605 170.073 101.784 170.073 101.964C170.073 105.559 170.073 109.154 170.073 112.749C170.073 113.043 169.991 113.344 170.179 113.605C171.409 113.738 172.645 113.405 173.643 112.674C174.641 111.942 175.331 110.865 175.575 109.651C175.657 109.213 175.698 108.768 175.698 108.323C175.698 106.121 175.698 103.928 175.698 101.727C175.68 101.108 175.886 100.504 176.277 100.023C179.445 95.9742 182.6 91.9142 185.741 87.8434C185.989 87.5984 186.184 87.304 186.312 86.9792C186.098 86.5848 185.783 86.2549 185.399 86.024C185.014 85.7931 184.575 85.6697 184.127 85.6667Z" fill="white"/>
<path d="M76.2936 85.846C76.1649 85.8132 76.0342 85.7886 75.9023 85.7726C75.753 85.7644 75.6033 85.7644 75.4539 85.7726C74.1982 85.8875 73.0233 86.4418 72.1361 87.3379C71.5351 87.8801 71.1429 88.6156 71.0275 89.4168C70.9513 89.8834 70.9077 90.3546 70.897 90.8272C70.897 98.0829 70.897 105.336 70.897 112.586C70.897 112.766 70.897 112.945 70.897 113.124C70.897 113.304 70.9541 113.467 70.9786 113.613C71.0475 113.643 71.1183 113.667 71.1905 113.687H71.4514C72.5591 113.663 73.6302 113.286 74.5083 112.611C75.091 112.219 75.5654 111.686 75.8874 111.062C76.2094 110.437 76.3688 109.742 76.3507 109.04C76.3507 101.616 76.3507 94.1833 76.3507 86.7428C76.3425 86.4575 76.3099 86.164 76.2936 85.846Z" fill="white"/>
<path d="M5.35579 85.7889C4.64118 85.724 3.92092 85.811 3.24232 86.0443C2.56373 86.2775 1.94215 86.6517 1.41843 87.1422C0.969502 87.5119 0.609607 87.978 0.365461 88.5059C0.121315 89.0337 -0.000810265 89.6098 0.00815016 90.1913V112.391C0.00815016 112.627 0.00815016 112.863 0.00815016 113.108C0.0207728 113.269 0.0425446 113.43 0.0733637 113.589C0.141476 113.622 0.212403 113.65 0.285315 113.671C0.372068 113.679 0.459422 113.679 0.546175 113.671C1.83751 113.635 3.07177 113.131 4.01888 112.252C4.46262 111.878 4.81727 111.409 5.057 110.88C5.29674 110.351 5.41552 109.775 5.4047 109.195C5.4047 101.646 5.4047 94.0963 5.4047 86.5471C5.39655 86.3351 5.37209 86.0987 5.35579 85.7889Z" fill="white"/>
<path d="M121.773 85.846C121.479 85.7332 121.16 85.7077 120.852 85.7726C119.933 85.8712 119.057 86.2147 118.317 86.7673C117.719 87.1629 117.231 87.7043 116.9 88.3404C116.569 88.9766 116.406 89.6865 116.425 90.4033C116.425 97.9199 116.425 105.437 116.425 112.953C116.425 113.149 116.425 113.353 116.425 113.63C116.678 113.63 116.825 113.679 116.972 113.679C118.17 113.647 119.322 113.204 120.232 112.423C120.723 112.058 121.12 111.582 121.391 111.033C121.661 110.485 121.798 109.88 121.789 109.268C121.789 101.692 121.789 94.1154 121.789 86.539C121.773 86.3189 121.773 86.0906 121.773 85.846Z" fill="white"/>
<path d="M1.61408 129.87H-0.0162964V120.78C0.961627 120.616 1.9514 120.535 2.94284 120.535C4.95636 120.535 6.63565 120.934 6.63565 123.396C6.63565 125.084 5.87752 125.842 4.70365 126.136L6.88836 129.87H5.00527L3.04066 126.266C2.56785 126.266 2.02983 126.266 1.61408 126.217V129.87ZM1.61408 124.978C2.06077 125.026 2.51004 125.045 2.95915 125.035C4.2716 125.035 5.04603 124.709 5.04603 123.405C5.04603 122.247 4.50801 121.774 3.00806 121.774C2.54202 121.776 2.0765 121.806 1.61408 121.864V124.978Z" fill="white"/>
<path d="M12.4398 129.87V120.633H14.0702V129.87H12.4398Z" fill="white"/>
<path d="M23.2003 121.905C21.9123 121.905 21.6922 122.157 21.6922 123.339V124.554H25.5073V125.793H21.6922V127.171C21.6922 128.353 21.9123 128.606 23.2003 128.606H25.6459V129.87C24.9693 129.87 23.8524 129.935 23.2003 129.935C21.5699 129.935 20.0374 129.845 20.0374 127.742V122.85C20.0374 120.747 21.5618 120.657 23.2003 120.657C23.8524 120.657 24.9693 120.657 25.6459 120.722V121.953L23.2003 121.905Z" fill="white"/>
<path d="M35.4933 127.326C35.4933 126.291 34.6781 126.103 33.7977 125.842C32.1674 125.337 31.1647 124.864 31.1647 123.127C31.1647 121.171 32.3385 120.535 34.4254 120.535C35.2854 120.541 36.1426 120.632 36.9851 120.804L36.8465 122.043C36.191 121.939 35.5292 121.879 34.8656 121.864C34.0504 121.864 32.7788 121.864 32.7788 122.956C32.7788 124.049 33.5124 124.187 34.6292 124.489C36.3167 124.945 37.1563 125.581 37.1563 127.277C37.1563 129.274 35.9335 130 33.7651 130C32.8967 130.001 32.0306 129.91 31.181 129.731L31.3359 128.451C32.1272 128.565 32.9249 128.631 33.7244 128.647C34.7841 128.647 35.4933 128.427 35.4933 127.326Z" fill="white"/>
<path d="M49.1477 122.027C48.3562 121.919 47.5581 121.867 46.7592 121.872C44.3137 121.872 44.2485 123.307 44.2485 125.272C44.2485 127.236 44.2485 128.663 46.7592 128.663C47.8516 128.663 47.925 128.329 47.925 127.848V126.062H46.2946V124.823H49.482V128.296C49.482 129.927 48.1532 130 46.3598 130C43.3191 130 42.5529 128.557 42.5529 125.272C42.5529 121.986 43.3191 120.535 46.3598 120.535C47.3276 120.525 48.2942 120.61 49.2456 120.788L49.1477 122.027Z" fill="white"/>
<path d="M58.8078 130C55.9546 130 55.1394 128.622 55.1394 125.272C55.1394 121.921 55.9546 120.535 58.8078 120.535C61.6609 120.535 62.4761 121.913 62.4761 125.272C62.4761 128.63 61.6691 130 58.8078 130ZM58.8078 128.687C60.7805 128.687 60.8376 127.293 60.8376 125.272C60.8376 123.25 60.7805 121.847 58.8078 121.847C56.835 121.847 56.7861 123.242 56.7861 125.272C56.7861 127.302 56.835 128.687 58.8078 128.687Z" fill="white"/>
<path d="M72.2584 127.326C72.2584 126.291 71.4432 126.103 70.5547 125.842C68.9243 125.337 67.9297 124.864 67.9297 123.127C67.9297 121.171 69.0955 120.535 71.1905 120.535C72.0504 120.541 72.9077 120.632 73.7502 120.804L73.6035 122.043C72.9506 121.939 72.2916 121.879 71.6307 121.864C70.8155 121.864 69.5357 121.864 69.5357 122.956C69.5357 124.049 70.2775 124.187 71.3862 124.489C73.0736 124.945 73.9214 125.581 73.9214 127.277C73.9214 129.274 72.6905 130 70.5221 130C69.6537 130.001 68.7876 129.91 67.9379 129.731L68.0928 128.451C68.8869 128.565 69.6873 128.631 70.4894 128.647C71.541 128.647 72.2584 128.427 72.2584 127.326Z" fill="white"/>
<path d="M92.2142 129.177C91.8581 129.478 91.4454 129.706 91.0003 129.846C90.5551 129.986 90.0865 130.035 89.6219 129.992C87.5269 129.992 86.5323 129.111 86.5323 127.318C86.5323 126.054 87.2742 125.345 88.4399 124.872C87.8683 124.314 87.5327 123.559 87.5024 122.761C87.5024 121.13 88.5948 120.559 90.0051 120.559C91.2523 120.559 92.4099 121.114 92.4099 122.63C92.4099 123.91 91.5132 124.668 90.4126 125.133L92.1816 127.098C92.3864 126.601 92.4969 126.07 92.5077 125.532L93.9261 125.598C93.8665 126.52 93.587 127.414 93.1109 128.206L94.6598 129.927H92.8338L92.2142 129.177ZM89.2062 125.744C88.4888 126.193 88.0567 126.56 88.0567 127.44C88.0567 128.321 88.9861 128.85 89.7768 128.85C90.0716 128.855 90.3643 128.799 90.6364 128.685C90.9085 128.572 91.1542 128.403 91.3583 128.19L89.2062 125.744ZM90.9914 122.744C90.9914 121.929 90.5594 121.676 89.9561 121.676C89.8114 121.663 89.6654 121.682 89.5292 121.733C89.3929 121.783 89.27 121.864 89.1696 121.969C89.0691 122.075 88.9938 122.201 88.9494 122.34C88.9049 122.478 88.8923 122.625 88.9127 122.769C88.9312 123.056 89.008 123.336 89.1383 123.593C89.2686 123.849 89.4498 124.076 89.6708 124.261C90.2741 123.959 90.9914 123.527 90.9914 122.744Z" fill="white"/>
<path d="M111.404 127.326C111.404 126.291 110.589 126.103 109.708 125.842C108.078 125.337 107.083 124.864 107.083 123.127C107.083 121.171 108.249 120.535 110.344 120.535C111.201 120.542 112.056 120.632 112.896 120.804L112.806 122.043C112.15 121.939 111.489 121.879 110.825 121.864C110.01 121.864 108.738 121.864 108.738 122.956C108.738 124.049 109.472 124.187 110.589 124.489C112.276 124.945 113.116 125.581 113.116 127.277C113.116 129.274 111.893 130 109.724 130C108.856 130.001 107.99 129.91 107.14 129.731L107.295 128.451C108.087 128.565 108.884 128.631 109.684 128.647C110.695 128.647 111.404 128.427 111.404 127.326Z" fill="white"/>
<path d="M121.773 121.905C120.477 121.905 120.257 122.157 120.257 123.339V124.554H124.08V125.793H120.257V127.171C120.257 128.353 120.477 128.606 121.773 128.606H124.259V129.87C123.583 129.87 122.458 129.935 121.814 129.935C120.183 129.935 118.643 129.845 118.643 127.742V122.85C118.643 120.747 120.167 120.657 121.814 120.657C122.458 120.657 123.583 120.657 124.259 120.722V121.953L121.773 121.905Z" fill="white"/>
<path d="M136.308 122.027C135.516 121.919 134.718 121.867 133.919 121.872C131.425 121.872 131.409 123.307 131.409 125.272C131.409 127.236 131.408 128.663 133.919 128.663C135.012 128.663 135.077 128.329 135.077 127.848V126.062H133.487V124.823H136.675V128.296C136.675 129.927 135.354 130 133.552 130C130.512 130 129.754 128.557 129.754 125.272C129.754 121.986 130.512 120.535 133.552 120.535C134.523 120.525 135.492 120.61 136.446 120.788L136.308 122.027Z" fill="white"/>
<path d="M144.036 126.926C144.036 128.158 144.525 128.663 145.878 128.663C147.231 128.663 147.72 128.158 147.72 126.926V120.633H149.31V126.821C149.31 129.34 147.957 130 145.878 130C143.799 130 142.438 129.34 142.438 126.821V120.633H144.068L144.036 126.926Z" fill="white"/>
<path d="M156.965 129.87H155.334V120.78C156.312 120.616 157.302 120.535 158.293 120.535C160.307 120.535 161.978 120.934 161.978 123.396C161.978 125.084 161.228 125.842 160.054 126.136L162.223 129.902H160.34L158.367 126.299C157.902 126.299 157.356 126.299 156.948 126.25L156.965 129.87ZM156.965 124.978C157.411 125.026 157.861 125.045 158.31 125.035C159.622 125.035 160.397 124.709 160.397 123.405C160.397 122.247 159.859 121.774 158.359 121.774C157.893 121.776 157.427 121.806 156.965 121.864V124.978Z" fill="white"/>
<path d="M171.214 130C168.361 130 167.546 128.622 167.546 125.272C167.546 121.921 168.361 120.535 171.214 120.535C174.067 120.535 174.883 121.913 174.883 125.272C174.883 128.63 174.076 130 171.214 130ZM171.214 128.687C173.187 128.687 173.244 127.293 173.244 125.272C173.244 123.25 173.187 121.847 171.214 121.847C169.241 121.847 169.193 123.242 169.193 125.272C169.193 127.302 169.241 128.687 171.214 128.687Z" fill="white"/>
<path d="M184.665 127.326C184.665 126.291 183.85 126.103 182.969 125.842C181.339 125.337 180.336 124.864 180.336 123.127C180.336 121.171 181.502 120.535 183.597 120.535C184.457 120.541 185.314 120.632 186.157 120.804L186.01 122.043C185.357 121.939 184.698 121.879 184.037 121.864C183.222 121.864 181.942 121.864 181.942 122.956C181.942 124.049 182.684 124.187 183.793 124.489C185.48 124.945 186.328 125.581 186.328 127.277C186.328 129.274 185.097 130 182.937 130C182.066 130.001 181.197 129.91 180.344 129.731L180.499 128.451C181.293 128.565 182.094 128.631 182.896 128.647C183.947 128.647 184.665 128.427 184.665 127.326Z" fill="white"/>
</g>
<defs>
<clipPath id="clip0_2_967">
<rect width="186.328" height="130" fill="white"/>
</clipPath>
</defs>
</svg>
