<svg width="44" height="44" viewBox="0 0 44 44" fill="none" xmlns="http://www.w3.org/2000/svg">
<circle cx="21.9331" cy="22.7066" r="20.562" stroke="white" stroke-width="1.20953"/>
<path d="M21.9332 2.14468C26.9792 2.14468 31.8491 4.00017 35.6157 7.35793C39.3824 10.7157 41.7828 15.3413 42.3601 20.3542C42.9375 25.367 41.6513 30.4172 38.7465 34.5433" stroke="#00C6D0" stroke-width="2.41906" stroke-linecap="round"/>
<path d="M16.609 27.7165C16.3856 27.9647 16.4056 28.3471 16.6538 28.5706C16.902 28.7941 17.2844 28.774 17.5079 28.5258L16.609 27.7165ZM27.2443 17.4477C27.2268 17.1142 26.9423 16.858 26.6087 16.8754L21.1733 17.1603C20.8398 17.1778 20.5835 17.4623 20.601 17.7959C20.6185 18.1294 20.9031 18.3856 21.2366 18.3682L26.0681 18.115L26.3213 22.9464C26.3388 23.28 26.6233 23.5362 26.9569 23.5187C27.2904 23.5012 27.5466 23.2167 27.5292 22.8831L27.2443 17.4477ZM17.5079 28.5258L27.0898 17.884L26.1909 17.0747L16.609 27.7165L17.5079 28.5258Z" fill="white"/>
</svg>
