<svg width="44" height="44" viewBox="0 0 44 44" fill="none" xmlns="http://www.w3.org/2000/svg">
<circle cx="21.8619" cy="21.7631" r="20.562" stroke="white" stroke-width="1.20953"/>
<path d="M21.8628 1.20117C26.9088 1.20117 31.7787 3.05666 35.5454 6.41442C39.312 9.77219 41.7125 14.3978 42.2898 19.4107C42.8671 24.4235 41.5809 29.4737 38.6762 33.5998C35.7714 37.7259 31.4508 40.6398 26.5369 41.7868C21.623 42.9338 16.4588 42.2339 12.0275 39.8203C7.59619 37.4066 4.2071 33.4478 2.5054 28.6974" stroke="#1A75FF" stroke-width="2.41906" stroke-linecap="round"/>
<path d="M16.5422 26.775C16.3188 27.0232 16.3388 27.4056 16.587 27.6291C16.8352 27.8525 17.2176 27.8325 17.4411 27.5843L16.5422 26.775ZM27.1775 16.5062C27.16 16.1726 26.8755 15.9164 26.5419 15.9339L21.1065 16.2188C20.773 16.2362 20.5167 16.5208 20.5342 16.8544C20.5517 17.1879 20.8363 17.4441 21.1698 17.4266L26.0013 17.1734L26.2545 22.0049C26.272 22.3385 26.5565 22.5947 26.8901 22.5772C27.2236 22.5597 27.4798 22.2752 27.4624 21.9416L27.1775 16.5062ZM17.4411 27.5843L27.023 16.9425L26.1241 16.1332L16.5422 26.775L17.4411 27.5843Z" fill="white"/>
</svg>
