<svg width="44" height="43" viewBox="0 0 44 43" fill="none" xmlns="http://www.w3.org/2000/svg">
<circle cx="21.6499" cy="21.7631" r="20.562" stroke="white" stroke-width="1.20953"/>
<path d="M21.65 1.20117C26.696 1.20117 31.5659 3.05666 35.3325 6.41442C39.0992 9.77219 41.4996 14.3978 42.0769 19.4107C42.6543 24.4235 41.3681 29.4737 38.4633 33.5998C35.5585 37.7259 31.238 40.6398 26.3241 41.7868" stroke="#1A75FF" stroke-width="2.41906" stroke-linecap="round"/>
<path d="M16.3239 26.775C16.1004 27.0232 16.1205 27.4056 16.3687 27.6291C16.6169 27.8525 16.9993 27.8325 17.2228 27.5843L16.3239 26.775ZM26.9592 16.5062C26.9417 16.1726 26.6572 15.9164 26.3236 15.9339L20.8882 16.2188C20.5546 16.2362 20.2984 16.5208 20.3159 16.8544C20.3334 17.1879 20.618 17.4441 20.9515 17.4266L25.783 17.1734L26.0362 22.0049C26.0537 22.3385 26.3382 22.5947 26.6718 22.5772C27.0053 22.5597 27.2615 22.2752 27.2441 21.9416L26.9592 16.5062ZM17.2228 27.5843L26.8047 16.9425L25.9058 16.1332L16.3239 26.775L17.2228 27.5843Z" fill="white"/>
</svg>
