<svg width="43" height="47" viewBox="0 0 43 47" fill="none" xmlns="http://www.w3.org/2000/svg">
<path d="M43 11.7331V35.262L21.5405 47C19.7221 46.0363 17.9342 45.034 16.1311 44.0559C14.3279 43.0777 12.5655 42.1285 10.7827 41.131L5.37839 38.1821L0.0555407 35.291C-0.0106766 34.8477 -0.0259575 12.4704 0.0555407 11.7476L21.5405 0L43 11.7331ZM21.5405 2.55382C15.1225 6.05208 8.7351 9.5407 2.37824 13.0197C2.37824 13.1257 2.37824 13.1932 2.37824 13.2606C2.37824 20.1318 2.37824 27.0031 2.37824 33.8743C2.37414 33.8901 2.37414 33.9067 2.37824 33.9225C2.39534 33.9564 2.41581 33.9886 2.43936 34.0189L7.16117 36.6016L11.9288 39.2084C13.5384 40.0854 15.1429 40.9672 16.7525 41.8393C18.3621 42.7115 19.9258 43.5885 21.4998 44.4221C22.1212 44.1522 40.3462 34.1827 40.6671 33.937C40.7231 33.3876 40.713 13.4148 40.6671 13.0004L21.5405 2.55382Z" fill="white"/>
<path d="M21.0152 4C15.3788 7.12966 9.76274 10.2529 4.16687 13.3696C4.1056 13.408 4.04955 13.4535 4 13.5051C4.41969 13.8197 15.3013 19.7967 15.7918 20C15.8175 19.9379 15.8345 19.8728 15.8424 19.8064C15.8424 19.0659 15.8424 18.3206 15.8424 17.5802C15.8481 17.5007 15.8297 17.4214 15.7893 17.3519C15.7489 17.2823 15.6883 17.2254 15.6148 17.1881L15.3721 17.0623L9.48632 13.8052L8.98067 13.5051L12.0146 11.7919L14.9777 10.1464L17.9863 8.46703C18.9926 7.91047 20.0039 7.32487 21.0152 6.81186L33.0851 13.4277C30.8197 14.7247 28.5747 15.9347 26.3852 17.1833C26.3397 17.5318 26.3093 19.366 26.3498 19.7048C26.3655 19.7832 26.3909 19.8596 26.4256 19.9322L26.9768 19.6322L34.3391 15.5523L37.7017 13.6842C37.818 13.6165 37.9848 13.5923 38 13.3938L21.0152 4Z" fill="white"/>
<path d="M26.0366 26.3861C24.5378 25.5922 23.0389 24.7892 21.54 24L8 31.1674C8.22483 31.2959 8.35973 31.3785 8.49963 31.4519L14.4952 34.6639C15.2496 35.0677 15.9941 35.4761 16.7635 35.8708C16.8834 35.935 16.9933 36.0497 17.1582 35.9763C17.2458 35.3072 17.2458 34.6309 17.1582 33.9619L11.992 31.2087C12.8014 30.7499 13.6008 30.3369 14.3853 29.9147L16.7435 28.6574L19.1517 27.3726L21.53 26.1154L30.7931 31.0665C30.8381 31.0665 30.8631 31.1307 30.928 31.195C30.3884 31.5299 29.8238 31.8006 29.2842 32.0897C28.7446 32.3788 28.1451 32.6908 27.5855 33.0075C27.0259 33.3241 26.4713 33.5719 25.9367 33.9252C25.9367 34.5722 25.9367 35.2054 25.9367 35.8386C25.9367 35.8799 25.9817 35.9258 26.0067 35.9671C26.4613 35.7882 34.5903 31.4749 35 31.1858C33.5011 30.3644 32.0022 29.5843 30.5033 28.7905C29.0044 27.9967 27.5355 27.1799 26.0366 26.3861Z" fill="white"/>
<path d="M21.1476 29.6762C21.9964 30.1045 22.8188 30.5281 23.6622 30.9796C23.6622 33.3441 23.6622 35.701 23.6622 38.05C23.8626 38.1152 23.9785 37.9942 24.0998 37.9337L29.2555 35.3317L35.7609 32.0455L36.209 31.8127C36.2726 31.6338 36.2924 31.445 36.267 31.2588C36.267 28.6429 36.267 26.0316 36.267 23.4157C36.267 22.1403 36.2933 20.8696 36.3039 19.5942V19.1194C36.093 19.0263 35.977 19.152 35.8505 19.2125C34.7118 19.7757 33.5784 20.3529 32.445 20.9208L29.6351 22.3172C29.4717 22.401 29.2977 22.4754 29.1396 22.5453C28.2398 22.1618 27.3896 21.6936 26.6039 21.1488C30.6982 19.0915 34.7786 17.0419 38.8448 15C39.0504 15.0931 38.9925 15.2281 38.9925 15.3351C38.9925 16.5407 38.9925 17.7463 38.9925 18.9518C38.9925 19.2916 38.9925 19.6314 38.9925 19.9712C38.9925 21.6004 38.9925 23.2295 38.9556 24.8586C38.9345 27.456 38.9169 30.0533 38.9028 32.6506V33.0835C38.634 33.265 21.6062 41.8343 21.1951 41.9926C21.1305 42.0025 21.0645 42.0025 21 41.9926C21 41.8343 21 41.6854 21 41.5271C21 38.7591 21.0123 35.9911 21.0369 33.2231C21.0369 32.2549 21.0369 31.2868 21.0369 30.3186C21.0171 30.0998 21.055 29.8799 21.1476 29.6762Z" fill="white"/>
<path d="M12.2251 22.5135C9.99787 21.3276 7.81072 20.1418 5.63862 18.993C5.57341 19.03 5.55334 19.0347 5.54331 19.0486C5.53757 19.0635 5.53757 19.0799 5.54331 19.0949V31.6575L5.57843 31.7038C5.57843 31.7038 5.57842 31.7362 5.61354 31.7408L17.0058 37.8322L17.2917 37.9804H17.4271C17.5325 37.86 17.4823 37.7025 17.4823 37.5589C17.4823 35.5145 17.4907 33.4702 17.5074 31.4258V30.8931C18.2808 30.4048 19.0981 29.9786 19.9504 29.6193C19.9504 29.6193 19.9855 29.6193 19.9955 29.6193C20.0056 29.6193 19.9955 29.6471 19.9955 29.6656C19.9955 29.6841 19.9955 29.8324 19.9955 29.9157C19.9955 32.3523 19.9872 34.7857 19.9705 37.2161C19.9705 37.2856 19.9705 37.3504 19.9705 37.4199C19.9538 37.5027 19.9421 37.5862 19.9353 37.6701C19.9353 39.1061 19.9353 40.5374 19.9353 41.9502C19.7547 42.066 19.6544 41.9502 19.5541 41.8993C18.5257 41.3527 17.5024 40.7968 16.474 40.2456L7.50973 35.4373L3.24078 33.149C3.16989 33.1124 3.10123 33.0722 3.03511 33.0286C3.01572 32.9182 3.00399 32.8068 3 32.6951C3 30.4315 3 28.1663 3 25.8996C3 25.1399 3 24.3802 3 23.6206L3.06019 15.3613C3.06019 15.2455 3.0602 15.1297 3.08528 15C3.29033 15.0226 3.48381 15.0999 3.6421 15.2223L8.95446 18.0758L14.1665 20.8551C14.3476 20.9231 14.5066 21.0332 14.628 21.1747C13.8605 21.675 13.0579 22.0688 12.2251 22.5135Z" fill="white"/>
<path d="M19.9433 8L19.7116 8.12259L19.418 8.27818L10.5898 12.9036C10.5727 12.9105 10.5584 12.922 10.5486 12.9366C10.5463 12.9664 10.5463 12.9963 10.5486 13.0261C11.1873 13.3703 11.8414 13.7334 12.5264 14.0634L14.2982 13.1204C14.8854 12.8093 15.4674 12.4934 16.0546 12.1775C16.6418 11.8616 17.1981 11.5362 17.8007 11.2863C17.8419 11.3382 17.8831 11.3665 17.8831 11.3948V21.6168C17.7131 21.7111 17.5586 21.8054 17.3938 21.8903L13.0003 24.2006L8.50378 26.5581C8.37656 26.6166 8.24588 26.6685 8.11233 26.7137C8.08658 24.8654 8.11233 23.0643 8.11233 21.2396C7.43245 20.9096 6.05208 20.2165 6.01602 20.1882C5.97997 20.1599 6.01602 20.24 6.01602 20.2778V20.7492C6.01602 22.5567 6.01602 24.3625 6.01602 26.1667C6.01602 27.336 6.01602 28.5069 6.01602 29.6794C6.01602 29.7878 5.95936 29.9151 6.09328 30C6.57229 29.8208 19.5673 22.9841 20 22.6824V22.3052C20 20.0829 20 17.8637 20 15.6477C20 14.186 20 12.7244 20 11.2628V8.87227L19.9433 8Z" fill="white"/>
<path d="M21.0874 8L21.3188 8.12272L21.6119 8.27848L30.4202 12.9088C30.4372 12.9158 30.4515 12.9273 30.4613 12.9419C30.4613 12.9419 30.4613 12.9702 30.4613 13.0315C29.8237 13.3761 29.1758 13.7395 28.4868 14.0699L26.7179 13.1259C26.1369 12.8144 25.5558 12.4982 24.9645 12.1819C24.3732 11.8657 23.8281 11.54 23.2213 11.2899C23.1802 11.3418 23.1391 11.3701 23.1391 11.3984V21.6314L23.6276 21.9052C25.0879 22.6745 31.0064 25.7897 32.5078 26.5733C32.6339 26.6336 32.7645 26.6856 32.8986 26.729C32.8986 24.8788 32.8986 23.0757 32.8986 21.2491C33.5722 20.9187 34.9554 20.2248 34.9863 20.1965C35.0171 20.1682 34.9863 20.2484 34.9863 20.2862C34.9863 20.4325 34.9863 28.5038 34.9863 29.679C34.9863 29.7876 35.0377 29.915 34.9092 30C34.431 29.8206 21.4525 22.9766 21.0257 22.6745V22.2969C21.0257 20.0722 21.0171 17.8507 21 15.6323V11.2427C21 10.4403 21 9.64257 21 8.84488L21.0874 8Z" fill="white"/>
</svg>
