<svg width="575" height="153" viewBox="0 0 575 153" fill="none" xmlns="http://www.w3.org/2000/svg">
<path d="M0.544128 6.91283L4.00666 7.38074C16.5065 9.0699 28.5825 13.0719 39.6173 19.182L67.7266 34.7467C85.4467 44.5586 106.902 44.848 124.88 35.5175L166.726 13.8004C182.381 5.67522 200.983 5.54667 216.75 13.4547L262.573 36.4379C278.621 44.4874 297.549 44.391 313.515 36.1785L358.806 12.8818C373.844 5.1464 391.684 5.11104 406.753 12.7868L450.35 34.9939C468.611 44.2956 490.279 44.0201 508.298 34.257L541.995 15.9987C550.851 11.2002 560.583 8.23495 570.61 7.27997L574.465 6.91283" stroke="#1A75FF" stroke-width="1.20953"/>
<path d="M0.544128 69.8095L6.10993 70.5617C17.2399 72.0657 28.0434 75.4048 38.0811 80.443L68.9325 95.9282C88.2712 105.635 111.636 102.026 127.145 86.9378L162.323 52.714C178.062 37.4022 203.053 37.1562 219.09 52.1552L257.401 87.9864C273.241 102.801 296.74 105.926 315.901 95.7646L358.509 73.1697C374.203 64.8474 393.036 65.0058 408.587 73.5909L445.512 93.9752C466.325 105.465 491.862 104.106 511.338 90.473L540.371 70.1503C550.061 63.367 561.219 58.9723 572.932 57.3251L574.465 57.1095" stroke="#369BFF" stroke-width="1.20953"/>
<path d="M166.726 13.8005L124.881 35.5176C106.903 44.8481 85.4472 44.5587 67.7272 34.7468L39.6178 19.1821C28.5831 13.0719 16.507 9.06997 4.0072 7.3808L0.544678 6.91289V152.661H574.466V6.91289L570.611 7.28003C560.583 8.23501 550.851 11.2003 541.995 15.9988L508.298 34.257C490.279 44.0201 468.611 44.2957 450.35 34.9939L406.754 12.7869C391.685 5.1111 373.845 5.14646 358.806 12.8819L313.515 36.1786C297.549 44.3911 278.622 44.4874 262.573 36.4379L216.75 13.4548C200.984 5.54673 182.382 5.67528 166.726 13.8005Z" fill="url(#paint0_linear_1_582)" fill-opacity="0.2"/>
<path d="M162.323 51.5048L127.146 85.7285C111.636 100.817 88.2717 104.426 68.9331 94.719L38.0816 79.2337C28.044 74.1955 17.2404 70.8565 6.11048 69.3524L0.544678 68.6003V152.36H574.466V55.9003L572.933 56.1158C561.219 57.763 550.062 62.1578 540.371 68.9411L511.339 89.2637C491.863 102.897 466.325 104.256 445.513 92.766L408.588 72.3817C393.037 63.7965 374.203 63.6381 358.51 71.9605L315.902 94.5554C296.741 104.717 273.242 101.592 257.402 86.7771L219.091 50.946C203.054 35.9469 178.062 36.193 162.323 51.5048Z" fill="url(#paint1_linear_1_582)" fill-opacity="0.2"/>
<defs>
<linearGradient id="paint0_linear_1_582" x1="287.505" y1="0.562865" x2="287.203" y2="58.3178" gradientUnits="userSpaceOnUse">
<stop stop-color="#3A57E8"/>
<stop offset="1" stop-color="#3A57E8" stop-opacity="0"/>
</linearGradient>
<linearGradient id="paint1_linear_1_582" x1="287.203" y1="32.6168" x2="287.203" y2="122.424" gradientUnits="userSpaceOnUse">
<stop stop-color="#85C5FA"/>
<stop offset="0.385417" stop-color="#85D9FA" stop-opacity="0.586835"/>
<stop offset="0.93284" stop-color="#85F4FA" stop-opacity="0"/>
</linearGradient>
</defs>
</svg>
