<svg width="45" height="45" viewBox="0 0 45 45" fill="none" xmlns="http://www.w3.org/2000/svg">
<circle cx="22.6744" cy="22.7066" r="20.562" stroke="white" stroke-width="1.20953"/>
<path d="M22.6744 2.14468C27.7205 2.14468 32.5903 4.00017 36.357 7.35793C40.1236 10.7157 42.5241 15.3413 43.1014 20.3542C43.6787 25.367 42.3925 30.4172 39.4878 34.5433C36.583 38.6694 32.2624 41.5833 27.3485 42.7303C22.4346 43.8773 17.2704 43.1774 12.8391 40.7638C8.4078 38.3501 5.01871 34.3913 3.31701 29.6409C1.61531 24.8905 1.71981 19.6802 3.61062 15.0018C5.50143 10.3234 9.04652 6.50367 13.5711 4.26965" stroke="#1A75FF" stroke-width="2.41906" stroke-linecap="round"/>
<path d="M17.354 27.7165C17.1305 27.9647 17.1505 28.3471 17.3987 28.5706C17.647 28.7941 18.0293 28.774 18.2528 28.5258L17.354 27.7165ZM27.9892 17.4477C27.9718 17.1142 27.6872 16.858 27.3537 16.8754L21.9182 17.1603C21.5847 17.1778 21.3285 17.4623 21.346 17.7959C21.3634 18.1294 21.648 18.3856 21.9815 18.3682L26.813 18.115L27.0662 22.9464C27.0837 23.28 27.3683 23.5362 27.7018 23.5187C28.0354 23.5012 28.2916 23.2167 28.2741 22.8831L27.9892 17.4477ZM18.2528 28.5258L27.8347 17.884L26.9359 17.0747L17.354 27.7165L18.2528 28.5258Z" fill="white"/>
</svg>
