<svg width="130" height="131" viewBox="0 0 130 131" fill="none" xmlns="http://www.w3.org/2000/svg">
<circle cx="65.2515" cy="65.6304" r="62.2907" stroke="white" stroke-width="2.41906"/>
<path d="M65.2515 3.33966C78.1058 3.33966 90.6454 7.31643 101.15 14.7246C111.655 22.1327 119.611 32.6093 123.927 44.7176C128.242 56.8259 128.706 69.9727 125.255 82.3551C121.804 94.7375 114.606 105.749 104.649 113.879C94.6928 122.009 82.4647 126.86 69.6423 127.766C56.82 128.672 44.0312 125.589 33.0302 118.94C22.0292 112.291 13.3546 102.401 8.19628 90.6271C3.03793 78.8532 1.64842 65.7717 4.21833 53.1769" stroke="#1A75FF" stroke-width="4.83811" stroke-linecap="round"/>
<circle cx="65.2343" cy="65.6137" r="47.4736" stroke="white" stroke-width="2.41906"/>
<path d="M65.2327 18.1401C72.1165 18.1401 78.918 19.6372 85.1656 22.5275C91.4133 25.4179 96.9576 29.6323 101.414 34.8788C105.871 40.1252 109.133 46.2781 110.975 52.9109C112.817 59.5437 113.195 66.4978 112.081 73.291C110.968 80.0842 108.391 86.554 104.528 92.252C100.666 97.95 95.6101 102.74 89.712 106.289C83.8139 109.839 77.2144 112.063 70.371 112.808C63.5276 113.553 56.6041 112.801 50.0803 110.604" stroke="#00C5D0" stroke-width="4.83811" stroke-linecap="round"/>
</svg>
