<svg width="44" height="44" viewBox="0 0 44 44" fill="none" xmlns="http://www.w3.org/2000/svg">
<circle cx="21.7539" cy="21.7631" r="20.562" stroke="white" stroke-width="1.20953"/>
<path d="M21.7589 1.20117C26.8049 1.20117 31.6747 3.05666 35.4414 6.41442C39.208 9.77219 41.6085 14.3978 42.1858 19.4107C42.7631 24.4235 41.477 29.4737 38.5722 33.5998C35.6674 37.7259 31.3468 40.6398 26.4329 41.7868C21.519 42.9338 16.3549 42.2339 11.9235 39.8203" stroke="#00C6D0" stroke-width="2.41906" stroke-linecap="round"/>
<path d="M16.4291 26.775C16.2056 27.0232 16.2257 27.4056 16.4739 27.6291C16.7221 27.8525 17.1045 27.8325 17.328 27.5843L16.4291 26.775ZM27.0644 16.5062C27.0469 16.1726 26.7623 15.9164 26.4288 15.9339L20.9934 16.2188C20.6598 16.2362 20.4036 16.5208 20.4211 16.8544C20.4386 17.1879 20.7231 17.4441 21.0567 17.4266L25.8882 17.1734L26.1414 22.0049C26.1589 22.3385 26.4434 22.5947 26.777 22.5772C27.1105 22.5597 27.3667 22.2752 27.3492 21.9416L27.0644 16.5062ZM17.328 27.5843L26.9099 16.9425L26.011 16.1332L16.4291 26.775L17.328 27.5843Z" fill="white"/>
</svg>
