<svg width="44" height="44" viewBox="0 0 44 44" fill="none" xmlns="http://www.w3.org/2000/svg">
<circle cx="21.9709" cy="21.7631" r="20.562" stroke="white" stroke-width="1.20953"/>
<path d="M21.9709 1.20117C27.0169 1.20117 31.8867 3.05666 35.6534 6.41442C39.4201 9.77219 41.8205 14.3978 42.3978 19.4107C42.9751 24.4235 41.689 29.4737 38.7842 33.5998C35.8794 37.7259 31.5589 40.6398 26.6449 41.7868C21.731 42.9338 16.5669 42.2339 12.1356 39.8203C7.70424 37.4066 4.31516 33.4478 2.61346 28.6974C0.911757 23.947 1.01626 18.7366 2.90707 14.0583" stroke="#00C6D0" stroke-width="2.41906" stroke-linecap="round"/>
<path d="M16.6484 26.775C16.425 27.0232 16.445 27.4056 16.6932 27.6291C16.9414 27.8525 17.3238 27.8325 17.5473 27.5843L16.6484 26.775ZM27.2837 16.5062C27.2662 16.1726 26.9817 15.9164 26.6481 15.9339L21.2127 16.2188C20.8792 16.2362 20.6229 16.5208 20.6404 16.8544C20.6579 17.1879 20.9425 17.4441 21.276 17.4266L26.1075 17.1734L26.3607 22.0049C26.3782 22.3385 26.6627 22.5947 26.9963 22.5772C27.3298 22.5597 27.586 22.2752 27.5686 21.9416L27.2837 16.5062ZM17.5473 27.5843L27.1292 16.9425L26.2303 16.1332L16.6484 26.775L17.5473 27.5843Z" fill="white"/>
</svg>
