<svg width="16" height="17" viewBox="0 0 16 17" fill="none" xmlns="http://www.w3.org/2000/svg">
<path d="M6.22428 14.9538V12.7282C6.22427 12.1621 6.68981 11.7022 7.26662 11.6984H9.37946C9.95902 11.6984 10.4288 12.1595 10.4288 12.7282V12.7282V14.9607C10.4287 15.4413 10.8196 15.8342 11.3092 15.8454H12.7178C14.1219 15.8454 15.2602 14.7283 15.2602 13.3503V13.3503V7.01913C15.2527 6.47702 14.9934 5.96794 14.5559 5.63679L9.73865 1.82842C8.89471 1.16531 7.69503 1.16531 6.85109 1.82842L2.05493 5.6437C1.61585 5.97351 1.35605 6.48343 1.35065 7.02605V13.3503C1.35065 14.7283 2.48894 15.8454 3.89311 15.8454H5.30167C5.80343 15.8454 6.21019 15.4462 6.21019 14.9538V14.9538" stroke="#92929D" stroke-width="1.20953" stroke-linecap="round" stroke-linejoin="round"/>
</svg>
