<svg width="16" height="16" viewBox="0 0 16 16" fill="none" xmlns="http://www.w3.org/2000/svg">
<path opacity="0.4" d="M6.86443 10.1728H2.8878C2.3845 10.1728 1.97595 10.5742 1.97595 11.0686C1.97595 11.5625 2.3845 11.9645 2.8878 11.9645H6.86443C7.36773 11.9645 7.77628 11.5625 7.77628 11.0686C7.77628 10.5742 7.36773 10.1728 6.86443 10.1728Z" fill="white"/>
<path opacity="0.4" d="M14.0718 4.37975C14.0718 3.88594 13.6633 3.48456 13.1606 3.48456H9.184C8.68071 3.48456 8.27216 3.88594 8.27216 4.37975C8.27216 4.87422 8.68071 5.2756 9.184 5.2756H13.1606C13.6633 5.2756 14.0718 4.87422 14.0718 4.37975Z" fill="white"/>
<path d="M6.13536 4.37993C6.13536 5.50883 5.2047 6.42382 4.05566 6.42382C2.90728 6.42382 1.97595 5.50883 1.97595 4.37993C1.97595 3.2517 2.90728 2.3367 4.05566 2.3367C5.2047 2.3367 6.13536 3.2517 6.13536 4.37993Z" fill="white"/>
<path d="M14.0738 11.0454C14.0738 12.1737 13.1432 13.0887 11.9941 13.0887C10.8458 13.0887 9.91443 12.1737 9.91443 11.0454C9.91443 9.91652 10.8458 9.00153 11.9941 9.00153C13.1432 9.00153 14.0738 9.91652 14.0738 11.0454Z" fill="white"/>
</svg>
