<svg width="16" height="15" viewBox="0 0 16 15" fill="none" xmlns="http://www.w3.org/2000/svg">
<path d="M7.55925 1.80829H5.29803C3.43838 1.80829 2.2724 3.12486 2.2724 4.98874V10.0168C2.2724 11.8806 3.43294 13.1972 5.29803 13.1972H10.6345C12.5002 13.1972 13.6607 11.8806 13.6607 10.0168V7.58076" stroke="#0048B3" stroke-width="1.20953" stroke-linecap="round" stroke-linejoin="round"/>
<path fill-rule="evenodd" clip-rule="evenodd" d="M5.94716 6.72705L10.4666 2.20765C11.0296 1.64522 11.9422 1.64522 12.5052 2.20765L13.2412 2.94365C13.8043 3.50668 13.8043 4.41988 13.2412 4.98231L8.70005 9.52348C8.45391 9.76962 8.12008 9.90811 7.77173 9.90811H5.50629L5.56313 7.6221C5.5716 7.28586 5.70888 6.96533 5.94716 6.72705Z" stroke="#0048B3" stroke-width="1.20953" stroke-linecap="round" stroke-linejoin="round"/>
<path d="M9.77789 2.90637L12.5392 5.66772" stroke="#0048B3" stroke-width="1.20953" stroke-linecap="round" stroke-linejoin="round"/>
</svg>
