<svg width="16" height="16" viewBox="0 0 16 16" fill="none" xmlns="http://www.w3.org/2000/svg">
<path d="M12.8224 7.6394C12.3806 7.12351 12.1799 6.67644 12.1799 5.91692V5.65867C12.1799 4.66892 11.9521 4.03121 11.4568 3.3935C10.6935 2.40314 9.40843 1.80624 8.15043 1.80624H8.09693C6.86538 1.80624 5.6206 2.37573 4.84404 3.3259C4.32173 3.97639 4.06748 4.64151 4.06748 5.65867V5.91692C4.06748 6.67644 3.87995 7.12351 3.42496 7.6394C3.09017 8.01946 2.98318 8.50794 2.98318 9.03662C2.98318 9.56591 3.15689 10.0672 3.5055 10.4747C3.96049 10.9631 4.60302 11.275 5.25937 11.3292C6.20963 11.4376 7.15989 11.4784 8.12398 11.4784C9.08747 11.4784 10.0377 11.4102 10.9886 11.3292C11.6443 11.275 12.2869 10.9631 12.7419 10.4747C13.0899 10.0672 13.2642 9.56591 13.2642 9.03662C13.2642 8.50794 13.1572 8.01946 12.8224 7.6394Z" fill="white"/>
<path opacity="0.4" d="M9.33846 12.2254C9.03613 12.1609 7.19391 12.1609 6.89158 12.2254C6.63313 12.2851 6.35364 12.424 6.35364 12.7285C6.36866 13.0191 6.53876 13.2755 6.77437 13.4381L6.77377 13.4387C7.07851 13.6763 7.43613 13.8273 7.81059 13.8815C8.01014 13.9089 8.21329 13.9077 8.42005 13.8815C8.79391 13.8273 9.15153 13.6763 9.45627 13.4387L9.45567 13.4381C9.69128 13.2755 9.86138 13.0191 9.8764 12.7285C9.8764 12.424 9.59691 12.2851 9.33846 12.2254Z" fill="white"/>
</svg>
