<svg width="16" height="16" viewBox="0 0 16 16" fill="none" xmlns="http://www.w3.org/2000/svg">
<path d="M7.99653 9.56415C5.9101 9.56415 4.14966 9.90508 4.14966 11.2209C4.14966 12.5373 5.92147 12.8662 7.99653 12.8662C10.083 12.8662 11.8434 12.5253 11.8434 11.2095C11.8434 9.8931 10.0716 9.56415 7.99653 9.56415Z" fill="white"/>
<path opacity="0.4" d="M7.9943 8.3105C9.40709 8.3105 10.5399 7.17114 10.5399 5.75022C10.5399 4.32875 9.40709 3.18994 7.9943 3.18994C6.5815 3.18994 5.44867 4.32875 5.44867 5.75022C5.44867 7.17114 6.5815 8.3105 7.9943 8.3105Z" fill="white"/>
<path opacity="0.4" d="M13.52 6.34624C13.8855 4.90843 12.8138 3.61713 11.4492 3.61713C11.3009 3.61713 11.159 3.63347 11.0204 3.66124C11.0019 3.6656 10.9814 3.67486 10.9705 3.6912C10.9581 3.71189 10.9673 3.73967 10.9808 3.75764C11.3907 4.33603 11.6263 5.04023 11.6263 5.79617C11.6263 6.52052 11.4102 7.19585 11.0312 7.75627C10.9922 7.814 11.0269 7.89188 11.0956 7.90386C11.1909 7.92074 11.2884 7.92946 11.388 7.93218C12.3817 7.95832 13.2736 7.31512 13.52 6.34624Z" fill="white"/>
<path d="M14.5623 9.73178C14.3803 9.34183 13.9412 9.07442 13.2735 8.94317C12.9584 8.86583 12.1055 8.75691 11.3122 8.77161C11.3003 8.77324 11.2938 8.78141 11.2927 8.78686C11.291 8.79448 11.2943 8.80756 11.31 8.81572C11.6766 8.99817 13.0937 9.79169 12.9156 11.4653C12.908 11.5378 12.9659 11.6004 13.038 11.5895C13.3867 11.5394 14.284 11.3455 14.5623 10.7415C14.7161 10.4224 14.7161 10.0515 14.5623 9.73178Z" fill="white"/>
<path opacity="0.4" d="M5.03203 3.66124C4.89395 3.63292 4.75153 3.61713 4.60316 3.61713C3.23856 3.61713 2.16692 4.90843 2.53298 6.34624C2.77882 7.31512 3.67068 7.95832 4.66435 7.93218C4.76399 7.92946 4.862 7.9202 4.95676 7.90386C5.02553 7.89188 5.06019 7.814 5.0212 7.75627C4.64215 7.19531 4.42609 6.52052 4.42609 5.79617C4.42609 5.03968 4.66218 4.33549 5.0721 3.75764C5.0851 3.73967 5.09485 3.71189 5.08185 3.6912C5.07102 3.67431 5.05098 3.6656 5.03203 3.66124Z" fill="white"/>
<path d="M2.77612 8.94272C2.10845 9.07397 1.66983 9.34138 1.48788 9.73133C1.33355 10.051 1.33355 10.4219 1.48788 10.7416C1.76621 11.3451 2.66349 11.5395 3.01222 11.589C3.08424 11.5999 3.14164 11.5379 3.13406 11.4649C2.95591 9.79179 4.37303 8.99827 4.74017 8.81582C4.75533 8.80711 4.75858 8.79458 4.75696 8.78641C4.75588 8.78097 4.74992 8.7728 4.73801 8.77171C3.94416 8.75646 3.09182 8.86538 2.77612 8.94272Z" fill="white"/>
</svg>
