<svg width="71" height="67" viewBox="0 0 71 67" fill="none" xmlns="http://www.w3.org/2000/svg">
<rect x="0.357849" y="0.39502" width="69.6989" height="65.6533" rx="32.8267" fill="#21445B"/>
<path d="M56 20.7331V44.262L34.5405 56C32.7221 55.0363 30.9342 54.034 29.1311 53.0559C27.3279 52.0777 25.5655 51.1285 23.7827 50.131L18.3784 47.1821L13.0555 44.291C12.9893 43.8477 12.974 21.4704 13.0555 20.7476L34.5405 9L56 20.7331ZM34.5405 11.5538C28.1225 15.0521 21.7351 18.5407 15.3782 22.0197C15.3782 22.1257 15.3782 22.1932 15.3782 22.2606C15.3782 29.1318 15.3782 36.0031 15.3782 42.8743C15.3741 42.8901 15.3741 42.9067 15.3782 42.9225C15.3953 42.9564 15.4158 42.9886 15.4394 43.0189L20.1612 45.6016L24.9288 48.2084C26.5384 49.0854 28.1429 49.9672 29.7525 50.8393C31.3621 51.7115 32.9258 52.5885 34.4998 53.4221C35.1212 53.1522 53.3462 43.1827 53.6671 42.937C53.7231 42.3876 53.713 22.4148 53.6671 22.0004L34.5405 11.5538Z" fill="white"/>
<path d="M34.0152 13C28.3788 16.1297 22.7627 19.2529 17.1669 22.3696C17.1056 22.408 17.0495 22.4535 17 22.5051C17.4197 22.8197 28.3013 28.7967 28.7918 29C28.8175 28.9379 28.8345 28.8728 28.8424 28.8064C28.8424 28.0659 28.8424 27.3206 28.8424 26.5802C28.8481 26.5007 28.8297 26.4214 28.7893 26.3519C28.7489 26.2823 28.6883 26.2254 28.6148 26.1881L28.3721 26.0623L22.4863 22.8052L21.9807 22.5051L25.0146 20.7919L27.9777 19.1464L30.9863 17.467C31.9926 16.9105 33.0039 16.3249 34.0152 15.8119L46.0851 22.4277C43.8197 23.7247 41.5747 24.9347 39.3852 26.1833C39.3397 26.5318 39.3093 28.366 39.3498 28.7048C39.3655 28.7832 39.3909 28.8596 39.4256 28.9322L39.9768 28.6322L47.3391 24.5523L50.7017 22.6842C50.818 22.6165 50.9848 22.5923 51 22.3938L34.0152 13Z" fill="white"/>
<path d="M39.0366 35.3861C37.5378 34.5922 36.0389 33.7892 34.54 33L21 40.1674C21.2248 40.2959 21.3597 40.3785 21.4996 40.4519L27.4952 43.6639C28.2496 44.0677 28.9941 44.4761 29.7635 44.8708C29.8834 44.935 29.9933 45.0497 30.1582 44.9763C30.2458 44.3072 30.2458 43.6309 30.1582 42.9619L24.992 40.2087C25.8014 39.7499 26.6008 39.3369 27.3853 38.9147L29.7435 37.6574L32.1517 36.3726L34.53 35.1154L43.7931 40.0665C43.8381 40.0665 43.8631 40.1307 43.928 40.195C43.3884 40.5299 42.8238 40.8006 42.2842 41.0897C41.7446 41.3788 41.1451 41.6908 40.5855 42.0075C40.0259 42.3241 39.4713 42.5719 38.9367 42.9252C38.9367 43.5722 38.9367 44.2054 38.9367 44.8386C38.9367 44.8799 38.9817 44.9258 39.0067 44.9671C39.4613 44.7882 47.5903 40.4749 48 40.1858C46.5011 39.3644 45.0022 38.5843 43.5033 37.7905C42.0044 36.9967 40.5355 36.1799 39.0366 35.3861Z" fill="white"/>
<path d="M34.1476 38.6762C34.9964 39.1045 35.8188 39.5281 36.6622 39.9796C36.6622 42.3441 36.6622 44.701 36.6622 47.05C36.8626 47.1152 36.9785 46.9942 37.0998 46.9337L42.2555 44.3317L48.7609 41.0455L49.209 40.8127C49.2726 40.6338 49.2924 40.445 49.267 40.2588C49.267 37.6429 49.267 35.0316 49.267 32.4157C49.267 31.1403 49.2933 29.8696 49.3039 28.5942V28.1194C49.093 28.0263 48.977 28.152 48.8505 28.2125C47.7118 28.7757 46.5784 29.3529 45.445 29.9208L42.6351 31.3172C42.4717 31.401 42.2977 31.4754 42.1396 31.5453C41.2398 31.1618 40.3896 30.6936 39.6039 30.1488C43.6982 28.0915 47.7786 26.0419 51.8448 24C52.0504 24.0931 51.9925 24.2281 51.9925 24.3351C51.9925 25.5407 51.9925 26.7463 51.9925 27.9518C51.9925 28.2916 51.9925 28.6314 51.9925 28.9712C51.9925 30.6004 51.9925 32.2295 51.9556 33.8586C51.9345 36.456 51.9169 39.0533 51.9028 41.6506V42.0835C51.634 42.265 34.6062 50.8343 34.1951 50.9926C34.1305 51.0025 34.0645 51.0025 34 50.9926C34 50.8343 34 50.6854 34 50.5271C34 47.7591 34.0123 44.9911 34.0369 42.2231C34.0369 41.2549 34.0369 40.2868 34.0369 39.3186C34.0171 39.0998 34.055 38.8799 34.1476 38.6762Z" fill="white"/>
<path d="M25.2251 31.5135C22.9979 30.3276 20.8107 29.1418 18.6386 27.993C18.5734 28.03 18.5533 28.0347 18.5433 28.0486C18.5376 28.0635 18.5376 28.0799 18.5433 28.0949V40.6575L18.5784 40.7038C18.5784 40.7038 18.5784 40.7362 18.6135 40.7408L30.0058 46.8322L30.2917 46.9804H30.4271C30.5325 46.86 30.4823 46.7025 30.4823 46.5589C30.4823 44.5145 30.4907 42.4702 30.5074 40.4258V39.8931C31.2808 39.4048 32.0981 38.9786 32.9504 38.6193C32.9504 38.6193 32.9855 38.6193 32.9955 38.6193C33.0056 38.6193 32.9955 38.6471 32.9955 38.6656C32.9955 38.6841 32.9955 38.8324 32.9955 38.9157C32.9955 41.3523 32.9872 43.7857 32.9705 46.2161C32.9705 46.2856 32.9705 46.3504 32.9705 46.4199C32.9538 46.5027 32.9421 46.5862 32.9353 46.6701C32.9353 48.1061 32.9353 49.5374 32.9353 50.9502C32.7547 51.066 32.6544 50.9502 32.5541 50.8993C31.5257 50.3527 30.5024 49.7968 29.474 49.2456L20.5097 44.4373L16.2408 42.149C16.1699 42.1124 16.1012 42.0722 16.0351 42.0286C16.0157 41.9182 16.004 41.8068 16 41.6951C16 39.4315 16 37.1663 16 34.8996C16 34.1399 16 33.3802 16 32.6206L16.0602 24.3613C16.0602 24.2455 16.0602 24.1297 16.0853 24C16.2903 24.0226 16.4838 24.0999 16.6421 24.2223L21.9545 27.0758L27.1665 29.8551C27.3476 29.9231 27.5066 30.0332 27.628 30.1747C26.8605 30.675 26.0579 31.0688 25.2251 31.5135Z" fill="white"/>
<path d="M32.9433 17L32.7116 17.1226L32.418 17.2782L23.5898 21.9036C23.5727 21.9105 23.5584 21.922 23.5486 21.9366C23.5463 21.9664 23.5463 21.9963 23.5486 22.0261C24.1873 22.3703 24.8414 22.7334 25.5264 23.0634L27.2982 22.1204C27.8854 21.8093 28.4674 21.4934 29.0546 21.1775C29.6418 20.8616 30.1981 20.5362 30.8007 20.2863C30.8419 20.3382 30.8831 20.3665 30.8831 20.3948V30.6168C30.7131 30.7111 30.5586 30.8054 30.3938 30.8903L26.0003 33.2006L21.5038 35.5581C21.3766 35.6166 21.2459 35.6685 21.1123 35.7137C21.0866 33.8654 21.1123 32.0643 21.1123 30.2396C20.4324 29.9096 19.0521 29.2165 19.016 29.1882C18.98 29.1599 19.016 29.24 19.016 29.2778V29.7492C19.016 31.5567 19.016 33.3625 19.016 35.1667C19.016 36.336 19.016 37.5069 19.016 38.6794C19.016 38.7878 18.9594 38.9151 19.0933 39C19.5723 38.8208 32.5673 31.9841 33 31.6824V31.3052C33 29.0829 33 26.8637 33 24.6477C33 23.186 33 21.7244 33 20.2628V17.8723L32.9433 17Z" fill="white"/>
<path d="M34.0874 17L34.3188 17.1227L34.6119 17.2785L43.4202 21.9088C43.4372 21.9158 43.4515 21.9273 43.4613 21.9419C43.4613 21.9419 43.4613 21.9702 43.4613 22.0315C42.8237 22.3761 42.1758 22.7395 41.4868 23.0699L39.7179 22.1259C39.1369 21.8144 38.5558 21.4982 37.9645 21.1819C37.3732 20.8657 36.8281 20.54 36.2213 20.2899C36.1802 20.3418 36.1391 20.3701 36.1391 20.3984V30.6314L36.6276 30.9052C38.0879 31.6745 44.0064 34.7897 45.5078 35.5733C45.6339 35.6336 45.7645 35.6856 45.8986 35.729C45.8986 33.8788 45.8986 32.0757 45.8986 30.2491C46.5722 29.9187 47.9554 29.2248 47.9863 29.1965C48.0171 29.1682 47.9863 29.2484 47.9863 29.2862C47.9863 29.4325 47.9863 37.5038 47.9863 38.679C47.9863 38.7876 48.0377 38.915 47.9092 39C47.431 38.8206 34.4525 31.9766 34.0257 31.6745V31.2969C34.0257 29.0722 34.0171 26.8507 34 24.6323V20.2427C34 19.4403 34 18.6426 34 17.8449L34.0874 17Z" fill="white"/>
</svg>
