<svg width="16" height="15" viewBox="0 0 16 15" fill="none" xmlns="http://www.w3.org/2000/svg">
<path d="M8.04131 9.31072C7.07099 9.31072 6.28607 8.55476 6.28607 7.60528C6.28607 6.6558 7.07099 5.8938 8.04131 5.8938C9.01164 5.8938 9.77802 6.6558 9.77802 7.60528C9.77802 8.55476 9.01164 9.31072 8.04131 9.31072Z" fill="white"/>
<path opacity="0.4" d="M13.6149 9.03196C13.4975 8.85053 13.3306 8.6691 13.1143 8.55419C12.9412 8.46953 12.83 8.33043 12.7311 8.16714C12.4159 7.64705 12.6013 6.96366 13.1267 6.65523C13.7447 6.31052 13.9425 5.54247 13.584 4.94375L13.1699 4.23013C12.8176 3.63141 12.0451 3.41975 11.4332 3.77051C10.8893 4.0608 10.1909 3.86727 9.87575 3.35322C9.77686 3.18389 9.72124 3.00246 9.7336 2.82103C9.75214 2.58517 9.67797 2.36141 9.56673 2.17998C9.33805 1.80503 8.92396 1.55103 8.46661 1.55103H7.59517C7.144 1.56312 6.72991 1.80503 6.50123 2.17998C6.3838 2.36141 6.31582 2.58517 6.32818 2.82103C6.34054 3.00246 6.28492 3.18389 6.18603 3.35322C5.87083 3.86727 5.17244 4.0608 4.63474 3.77051C4.0167 3.41975 3.25033 3.63141 2.89186 4.23013L2.47777 4.94375C2.12549 5.54247 2.32326 6.31052 2.93512 6.65523C3.46046 6.96366 3.64587 7.64705 3.33685 8.16714C3.23178 8.33043 3.12054 8.46953 2.94748 8.55419C2.73735 8.6691 2.55194 8.85053 2.45305 9.03196C2.22437 9.40691 2.23673 9.87863 2.46541 10.2717L2.89186 10.9974C3.12054 11.3845 3.54699 11.6264 3.99198 11.6264C4.20211 11.6264 4.44933 11.5659 4.6471 11.445C4.80161 11.3422 4.98703 11.3059 5.19098 11.3059C5.80284 11.3059 6.31582 11.8078 6.32818 12.4065C6.32818 13.102 6.89678 13.6463 7.61371 13.6463H8.45425C9.165 13.6463 9.7336 13.102 9.7336 12.4065C9.75214 11.8078 10.2651 11.3059 10.877 11.3059C11.0748 11.3059 11.2602 11.3422 11.4209 11.445C11.6186 11.5659 11.8597 11.6264 12.076 11.6264C12.5148 11.6264 12.9412 11.3845 13.1699 10.9974L13.6025 10.2717C13.825 9.86653 13.8436 9.40691 13.6149 9.03196Z" fill="white"/>
</svg>
