<svg width="16" height="15" viewBox="0 0 16 15" fill="none" xmlns="http://www.w3.org/2000/svg">
<path opacity="0.4" d="M8.07256 13.5604C7.99768 13.5604 7.92279 13.5432 7.85521 13.5082L5.67739 12.3809C5.05942 12.0607 4.57601 11.7013 4.19853 11.2826C3.37233 10.367 2.91266 9.19161 2.90535 7.97235L2.87978 3.95935C2.87674 3.4962 3.17568 3.08049 3.62257 2.92393L7.62141 1.52973C7.85886 1.44493 8.12371 1.44374 8.36542 1.52558L12.3795 2.87234C12.8288 3.02237 13.1326 3.43512 13.1351 3.89768L13.1606 7.91365C13.1685 9.13113 12.7247 10.3112 11.9113 11.237C11.5381 11.6616 11.0589 12.0263 10.447 12.3524L8.2887 13.5053C8.22173 13.5415 8.14745 13.5598 8.07256 13.5604Z" fill="white"/>
<path d="M7.61126 8.91693C7.49437 8.91752 7.37747 8.87542 7.28736 8.78884L6.12814 7.67395C5.94914 7.50079 5.94731 7.21969 6.12448 7.04534C6.30165 6.8704 6.59085 6.86862 6.77046 7.04119L7.60457 7.84296L9.64113 5.83498C9.81891 5.66004 10.1081 5.65826 10.2871 5.83083C10.4667 6.00399 10.4685 6.28568 10.2914 6.45943L7.93334 8.78468C7.84445 8.87245 7.72816 8.91634 7.61126 8.91693Z" fill="white"/>
</svg>
