<svg width="15" height="16" viewBox="0 0 15 16" fill="none" xmlns="http://www.w3.org/2000/svg">
<path opacity="0.4" d="M13.3506 10.236C13.3506 11.9233 11.996 13.29 10.3087 13.2961H10.3026H4.30941C2.62817 13.2961 1.25536 11.9354 1.25536 10.2481V10.242C1.25536 10.242 1.25898 7.56534 1.26382 6.21914C1.26443 5.96635 1.55471 5.82483 1.75247 5.98207C3.18939 7.12205 5.75903 9.20063 5.79109 9.22784C6.22047 9.57195 6.76476 9.76608 7.32114 9.76608C7.87752 9.76608 8.42181 9.57195 8.85119 9.22119C8.88324 9.20002 11.3954 7.18374 12.8541 6.02501C13.0525 5.86717 13.344 6.00868 13.3446 6.26087C13.3506 7.59679 13.3506 10.236 13.3506 10.236Z" fill="white"/>
<path d="M13.0338 4.0272C12.5101 3.04023 11.4796 2.41006 10.345 2.41006H4.30947C3.17493 2.41006 2.14441 3.04023 1.62068 4.0272C1.50336 4.24794 1.559 4.52311 1.75434 4.67914L6.24471 8.27083C6.55919 8.52483 6.94019 8.65123 7.32119 8.65123C7.32361 8.65123 7.32543 8.65123 7.32724 8.65123C7.32905 8.65123 7.33147 8.65123 7.33329 8.65123C7.71429 8.65123 8.09529 8.52483 8.40977 8.27083L12.9001 4.67914C13.0955 4.52311 13.1511 4.24794 13.0338 4.0272Z" fill="white"/>
</svg>
