<svg width="16" height="15" viewBox="0 0 16 15" fill="none" xmlns="http://www.w3.org/2000/svg">
<path d="M12.2894 5.84967C12.2894 5.84967 11.961 9.92276 11.7705 11.6385C11.6798 12.4579 11.1736 12.9381 10.3445 12.9532C8.76667 12.9817 7.18703 12.9835 5.6098 12.9502C4.81212 12.9339 4.3144 12.4476 4.2255 11.6427C4.03379 9.91187 3.70721 5.84967 3.70721 5.84967" stroke="#ADB5BD" stroke-width="1.20953" stroke-linecap="round" stroke-linejoin="round"/>
<path d="M13.128 3.89729H2.87238" stroke="#ADB5BD" stroke-width="1.20953" stroke-linecap="round" stroke-linejoin="round"/>
<path d="M11.1536 3.8978C10.6789 3.8978 10.2701 3.56216 10.1769 3.09709L10.03 2.3617C9.93925 2.02243 9.63203 1.78778 9.28187 1.78778H6.7219C6.37175 1.78778 6.06452 2.02243 5.97381 2.3617L5.82685 3.09709C5.73372 3.56216 5.3249 3.8978 4.85016 3.8978" stroke="#ADB5BD" stroke-width="1.20953" stroke-linecap="round" stroke-linejoin="round"/>
</svg>
