<svg width="16" height="15" viewBox="0 0 16 15" fill="none" xmlns="http://www.w3.org/2000/svg">
<path opacity="0.4" d="M13.6177 8.37828C13.1211 8.37828 12.7172 7.97799 12.7172 7.48602C12.7172 6.99344 13.1211 6.59315 13.6177 6.59315C13.738 6.59315 13.8535 6.54581 13.9382 6.46192C14.0235 6.37743 14.0712 6.26297 14.0712 6.14373L14.0706 4.52458C14.0706 3.15593 12.9464 2.04254 11.5651 2.04254H4.48209C3.10081 2.04254 1.97656 3.15593 1.97656 4.52458L1.97595 6.19586C1.97595 6.31511 2.02373 6.42956 2.109 6.51405C2.19367 6.59795 2.30918 6.64529 2.42953 6.64529C2.94297 6.64529 3.33002 7.00663 3.33002 7.48602C3.33002 7.97799 2.92604 8.37828 2.42953 8.37828C2.17915 8.37828 1.97595 8.57963 1.97595 8.82771V10.4457C1.97595 11.8143 3.0996 12.9283 4.48149 12.9283H11.5657C12.9476 12.9283 14.0712 11.8143 14.0712 10.4457V8.82771C14.0712 8.57963 13.868 8.37828 13.6177 8.37828Z" fill="white"/>
<path d="M10.0999 7.23662L9.38692 7.93089L9.55564 8.91243C9.58467 9.08236 9.51633 9.24988 9.37663 9.35027C9.23814 9.45187 9.05732 9.46457 8.90492 9.38354L8.02499 8.92089L7.14324 9.38414C7.07793 9.41861 7.00656 9.43676 6.93581 9.43676C6.84328 9.43676 6.75196 9.40773 6.67334 9.35088C6.53424 9.24988 6.4659 9.08236 6.49493 8.91243L6.66306 7.93089L5.95004 7.23662C5.82667 7.11688 5.78373 6.94089 5.83695 6.777C5.89077 6.61372 6.02987 6.4976 6.19981 6.47341L7.18316 6.33008L7.62403 5.43685C7.70083 5.28324 7.85444 5.18768 8.02499 5.18768H8.0262C8.19734 5.18829 8.35095 5.28384 8.42655 5.43745L8.86742 6.33008L9.85258 6.47402C10.0207 6.4976 10.1598 6.61372 10.213 6.777C10.2668 6.94089 10.2239 7.11688 10.0999 7.23662Z" fill="white"/>
</svg>
