<svg width="16" height="15" viewBox="0 0 16 15" fill="none" xmlns="http://www.w3.org/2000/svg">
<path fill-rule="evenodd" clip-rule="evenodd" d="M6.58255 9.3186C4.25784 9.3186 2.2724 9.66997 2.2724 11.0779C2.2724 12.4858 4.24575 12.8498 6.58255 12.8498C8.90787 12.8498 10.8927 12.4978 10.8927 11.0906C10.8927 9.68328 8.91997 9.3186 6.58255 9.3186Z" stroke="#ADB5BD" stroke-width="1.20953" stroke-linecap="round" stroke-linejoin="round"/>
<path fill-rule="evenodd" clip-rule="evenodd" d="M6.58308 7.31095C8.1089 7.31095 9.34564 6.07421 9.34564 4.54839C9.34564 3.02257 8.1089 1.78583 6.58308 1.78583C5.05787 1.78583 3.82112 3.02257 3.82112 4.54839C3.81568 6.06877 5.04335 7.30551 6.56433 7.31095H6.58308Z" stroke="#ADB5BD" stroke-width="1.20953" stroke-linecap="round" stroke-linejoin="round"/>
<path d="M12.2258 5.36401V7.78912" stroke="#ADB5BD" stroke-width="1.20953" stroke-linecap="round" stroke-linejoin="round"/>
<path d="M13.4607 6.57728H10.9872" stroke="#ADB5BD" stroke-width="1.20953" stroke-linecap="round" stroke-linejoin="round"/>
</svg>
