<svg width="16" height="16" viewBox="0 0 16 16" fill="none" xmlns="http://www.w3.org/2000/svg">
<path d="M7.66875 9.8894H7.88024C9.04373 9.8894 10.0309 9.14422 10.3783 8.11093C10.4287 7.96051 10.3133 7.80546 10.1533 7.80546H9.50186C9.29447 7.80546 9.12692 7.63999 9.12692 7.43576C9.12692 7.23096 9.29447 7.06491 9.50186 7.06491H10.1334C10.3425 7.06491 10.5119 6.89771 10.5119 6.69117C10.5119 6.48463 10.3425 6.31743 10.1334 6.31743H9.50186C9.29447 6.31743 9.12692 6.15138 9.12692 5.94716C9.12692 5.74235 9.29447 5.57631 9.50186 5.57631H10.1334C10.3425 5.57631 10.5119 5.4091 10.5119 5.20256C10.5119 4.99602 10.3425 4.82882 10.1334 4.82882H9.50186C9.29447 4.82882 9.12692 4.66277 9.12692 4.45797C9.12692 4.25374 9.29447 4.0877 9.50186 4.0877H10.1867C10.3437 4.0877 10.4562 3.93959 10.414 3.78974C10.1029 2.69686 9.0865 1.89615 7.88024 1.89615H7.66875C6.21527 1.89615 5.03714 3.05903 5.03714 4.495V7.29055C5.03714 8.72593 6.21527 9.8894 7.66875 9.8894Z" fill="white"/>
<path opacity="0.4" d="M12.3293 6.629C12.0059 6.629 11.7434 6.88761 11.7434 7.20755C11.7434 9.36843 9.96306 11.1266 7.77493 11.1266C5.58621 11.1266 3.80583 9.36843 3.80583 7.20755C3.80583 6.88761 3.54337 6.629 3.21998 6.629C2.8966 6.629 2.63414 6.88761 2.63414 7.20755C2.63414 9.81102 4.62953 11.9603 7.18908 12.249V13.4131C7.18908 13.7324 7.45096 13.9916 7.77493 13.9916C8.09831 13.9916 8.36077 13.7324 8.36077 13.4131V12.249C10.9197 11.9603 12.9151 9.81102 12.9151 7.20755C12.9151 6.88761 12.6527 6.629 12.3293 6.629Z" fill="white"/>
</svg>
