<svg width="15" height="16" viewBox="0 0 15 16" fill="none" xmlns="http://www.w3.org/2000/svg">
<path d="M4.20675 1.4382H11.0081C12.0473 1.4382 12.8447 1.80086 13.3854 2.3815C13.9306 2.96702 14.2602 3.82394 14.2602 4.88647V11.2947C14.2602 12.3573 13.9306 13.2142 13.3853 13.7997C12.8446 14.3803 12.047 14.743 11.0073 14.743H4.20675C3.16757 14.743 2.37036 14.3804 1.8299 13.7998C1.28489 13.2143 0.955411 12.3574 0.955411 11.2947V4.88647C0.955411 3.82461 1.28621 2.96758 1.83228 2.38173C2.37396 1.8006 3.17149 1.4382 4.20675 1.4382Z" stroke="#92929D" stroke-width="1.20953" stroke-linecap="round" stroke-linejoin="round"/>
<path d="M5.18787 6.27575C5.18787 5.7973 5.32974 5.3296 5.59555 4.93179C5.86136 4.53398 6.23917 4.22392 6.68119 4.04083C7.12321 3.85774 7.60961 3.80983 8.07886 3.90317C8.54811 3.99651 8.97914 4.2269 9.31745 4.56522C9.65577 4.90353 9.88616 5.33456 9.9795 5.80381C10.0728 6.27306 10.0249 6.75946 9.84184 7.20148C9.65875 7.64351 9.34869 8.02131 8.95088 8.28712C8.55307 8.55293 8.08537 8.6948 7.60692 8.6948L7.60692 10.2067M7.60692 11.7186V11.7489" stroke="#92929D" stroke-width="1.20953" stroke-linecap="round"/>
</svg>
