<svg width="23" height="20" viewBox="0 0 23 20" fill="none" xmlns="http://www.w3.org/2000/svg">
<path d="M7.99979 9.04982C8.6323 10.3429 9.68049 11.3864 10.9765 12.013C11.0713 12.0579 11.1762 12.0774 11.2808 12.0695C11.3854 12.0615 11.4862 12.0265 11.5732 11.9678L13.4814 10.6954C13.5658 10.6391 13.6629 10.6048 13.7639 10.5955C13.8649 10.5862 13.9667 10.6023 14.0599 10.6422L17.6299 12.1722C17.7511 12.2237 17.8524 12.3133 17.9184 12.4273C17.9843 12.5414 18.0114 12.6738 17.9956 12.8046C17.8828 13.6875 17.452 14.4991 16.7839 15.0873C16.1158 15.6755 15.2562 16 14.366 16C11.6168 16 8.98015 14.9079 7.03614 12.9639C5.09213 11.0198 4 8.38321 4 5.63396C4.00005 4.74384 4.32454 3.88425 4.91273 3.21614C5.50092 2.54804 6.31246 2.11724 7.19541 2.0044C7.32621 1.98857 7.45862 2.01568 7.57268 2.08165C7.68674 2.14761 7.77627 2.24886 7.82779 2.37013L9.3591 5.9432C9.39871 6.03562 9.41485 6.1364 9.40608 6.23657C9.39732 6.33674 9.36391 6.43318 9.30885 6.51731L8.04081 8.45483C7.9831 8.54199 7.94898 8.64263 7.94179 8.74691C7.9346 8.8512 7.95458 8.95557 7.99979 9.04982V9.04982Z" stroke="white" stroke-width="1.5" stroke-linecap="round" stroke-linejoin="round"/>
</svg>
