<svg width="129" height="22" viewBox="0 0 129 22" fill="none" xmlns="http://www.w3.org/2000/svg">
<path d="M11.7412 0.515088C11.8291 0.316933 12.1103 0.316933 12.1982 0.515089L14.9869 6.80085C15.0242 6.88503 15.1049 6.94186 15.1967 6.94876L22.4047 7.49051C22.6309 7.50751 22.7194 7.79271 22.5425 7.93473L17.0752 12.3254C16.9988 12.3867 16.9653 12.487 16.9894 12.582L18.6639 19.163C18.7183 19.3769 18.489 19.5513 18.2974 19.4416L12.0939 15.8893C12.017 15.8453 11.9224 15.8453 11.8455 15.8893L5.642 19.4416C5.45041 19.5513 5.22105 19.3769 5.27549 19.163L6.94996 12.5819C6.97411 12.487 6.94059 12.3867 6.86421 12.3254L1.39688 7.93473C1.22002 7.79271 1.30849 7.50751 1.53468 7.49051L8.7427 6.94876C8.83454 6.94186 8.91514 6.88503 8.95249 6.80085L11.7412 0.515088Z" fill="#0F0BC7"/>
<path d="M37.9235 0.515088C38.0114 0.316933 38.2926 0.316933 38.3805 0.515089L41.1692 6.80085C41.2065 6.88503 41.2871 6.94186 41.379 6.94876L48.587 7.49051C48.8132 7.50751 48.9017 7.79271 48.7248 7.93473L43.2575 12.3254C43.1811 12.3867 43.1476 12.487 43.1717 12.582L44.8462 19.163C44.9006 19.3769 44.6713 19.5513 44.4797 19.4416L38.2762 15.8893C38.1993 15.8453 38.1047 15.8453 38.0278 15.8893L31.8243 19.4416C31.6327 19.5513 31.4033 19.3769 31.4578 19.163L33.1323 12.5819C33.1564 12.487 33.1229 12.3867 33.0465 12.3254L27.5792 7.93473C27.4023 7.79271 27.4908 7.50751 27.717 7.49051L34.925 6.94876C35.0168 6.94186 35.0974 6.88503 35.1348 6.80085L37.9235 0.515088Z" fill="#0F0BC7"/>
<path d="M64.1058 0.515088C64.1937 0.316933 64.4749 0.316933 64.5628 0.515089L67.3515 6.80085C67.3888 6.88503 67.4694 6.94186 67.5613 6.94876L74.7693 7.49051C74.9955 7.50751 75.084 7.79271 74.9071 7.93473L69.4398 12.3254C69.3634 12.3867 69.3299 12.487 69.354 12.582L71.0285 19.163C71.0829 19.3769 70.8536 19.5513 70.662 19.4416L64.4585 15.8893C64.3816 15.8453 64.287 15.8453 64.2101 15.8893L58.0066 19.4416C57.815 19.5513 57.5856 19.3769 57.6401 19.163L59.3146 12.5819C59.3387 12.487 59.3052 12.3867 59.2288 12.3254L53.7615 7.93473C53.5846 7.79271 53.6731 7.50751 53.8993 7.49051L61.1073 6.94876C61.1991 6.94186 61.2797 6.88503 61.3171 6.80085L64.1058 0.515088Z" fill="#0F0BC7"/>
<path d="M90.2881 0.515088C90.376 0.316933 90.6572 0.316933 90.7451 0.515089L93.5338 6.80085C93.5711 6.88503 93.6517 6.94186 93.7436 6.94876L100.952 7.49051C101.178 7.50751 101.266 7.79271 101.089 7.93473L95.6221 12.3254C95.5457 12.3867 95.5122 12.487 95.5363 12.582L97.2108 19.163C97.2652 19.3769 97.0359 19.5513 96.8443 19.4416L90.6408 15.8893C90.5639 15.8453 90.4693 15.8453 90.3924 15.8893L84.1889 19.4416C83.9973 19.5513 83.7679 19.3769 83.8224 19.163L85.4968 12.5819C85.521 12.487 85.4875 12.3867 85.4111 12.3254L79.9438 7.93473C79.7669 7.79271 79.8554 7.50751 80.0816 7.49051L87.2896 6.94876C87.3814 6.94186 87.462 6.88503 87.4994 6.80085L90.2881 0.515088Z" fill="#0F0BC7"/>
<path d="M116.47 0.515088C116.558 0.316933 116.839 0.316933 116.927 0.515089L119.716 6.80085C119.753 6.88503 119.834 6.94186 119.926 6.94876L127.134 7.49051C127.36 7.50751 127.449 7.79271 127.272 7.93473L121.804 12.3254C121.728 12.3867 121.694 12.487 121.719 12.582L123.393 19.163C123.448 19.3769 123.218 19.5513 123.027 19.4416L116.823 15.8893C116.746 15.8453 116.652 15.8453 116.575 15.8893L110.371 19.4416C110.18 19.5513 109.95 19.3769 110.005 19.163L111.679 12.5819C111.703 12.487 111.67 12.3867 111.593 12.3254L106.126 7.93473C105.949 7.79271 106.038 7.50751 106.264 7.49051L113.472 6.94876C113.564 6.94186 113.644 6.88503 113.682 6.80085L116.47 0.515088Z" fill="#0F0BC7"/>
</svg>
