<svg width="43" height="47" viewBox="0 0 43 47" fill="none" xmlns="http://www.w3.org/2000/svg">
<path d="M43 11.7331V35.262L21.5405 47C19.7221 46.0363 17.9342 45.034 16.1311 44.0559C14.3279 43.0777 12.5655 42.1285 10.7827 41.131L5.37839 38.1821L0.0555407 35.291C-0.0106766 34.8477 -0.0259575 12.4704 0.0555407 11.7476L21.5405 0L43 11.7331ZM21.5405 2.55382C15.1225 6.05208 8.7351 9.5407 2.37824 13.0197C2.37824 13.1257 2.37824 13.1932 2.37824 13.2606C2.37824 20.1318 2.37824 27.0031 2.37824 33.8743C2.37414 33.8901 2.37414 33.9067 2.37824 33.9225C2.39534 33.9564 2.41581 33.9886 2.43936 34.0189L7.16117 36.6016L11.9288 39.2084C13.5384 40.0854 15.1429 40.9672 16.7525 41.8393C18.3621 42.7115 19.9258 43.5885 21.4998 44.4221C22.1212 44.1522 40.3462 34.1827 40.6671 33.937C40.7231 33.3876 40.713 13.4148 40.6671 13.0004L21.5405 2.55382Z" fill="white"/>
</svg>
