<svg width="239" height="266" viewBox="0 0 239 266" fill="none" xmlns="http://www.w3.org/2000/svg">
<path d="M239 66.4045V199.568L119.725 266C109.618 260.546 99.6808 254.873 89.6587 249.337C79.6366 243.802 69.8409 238.429 59.932 232.784L29.8939 216.094L0.308703 199.732C-0.0593418 197.223 -0.144275 70.577 0.308703 66.4864L119.725 0L239 66.4045ZM119.725 14.4536C84.0531 34.2522 48.5509 53.9963 13.2186 73.6859C13.2186 74.2858 13.2186 74.6676 13.2186 75.0494C13.2186 113.938 13.2186 152.826 13.2186 191.714C13.1958 191.804 13.1958 191.897 13.2186 191.987C13.3136 192.179 13.4274 192.361 13.5583 192.532L39.8028 207.149L66.302 221.903C75.2483 226.866 84.1663 231.857 93.1127 236.793C102.059 241.729 110.75 246.692 119.499 251.41C122.953 249.883 224.25 193.46 226.033 192.069C226.345 188.96 226.288 75.9221 226.033 73.5768L119.725 14.4536Z" fill="#00737E"/>
</svg>
