<svg width="17" height="27" viewBox="0 0 17 27" fill="none" xmlns="http://www.w3.org/2000/svg">
<path d="M9.22515 7.51346C6.99787 6.32761 4.81072 5.14176 2.63862 3.99297C2.57341 4.03003 2.55334 4.03466 2.54331 4.04856C2.53757 4.06354 2.53757 4.07989 2.54331 4.09488V16.6575L2.57843 16.7038C2.57843 16.7038 2.57842 16.7362 2.61354 16.7408L14.0058 22.8322L14.2917 22.9804H14.4271C14.5325 22.86 14.4823 22.7025 14.4823 22.5589C14.4823 20.5145 14.4907 18.4702 14.5074 16.4258V15.8931C15.2808 15.4048 16.0981 14.9786 16.9504 14.6193C16.9504 14.6193 16.9855 14.6193 16.9955 14.6193C17.0056 14.6193 16.9955 14.6471 16.9955 14.6656C16.9955 14.6841 16.9955 14.8324 16.9955 14.9157C16.9955 17.3523 16.9872 19.7857 16.9705 22.2161C16.9705 22.2856 16.9705 22.3504 16.9705 22.4199C16.9538 22.5027 16.9421 22.5862 16.9353 22.6701C16.9353 24.1061 16.9353 25.5374 16.9353 26.9502C16.7547 27.066 16.6544 26.9502 16.5541 26.8993C15.5257 26.3527 14.5024 25.7968 13.474 25.2456L4.50973 20.4373L0.240785 18.149C0.16989 18.1124 0.101231 18.0722 0.0351146 18.0286C0.0157201 17.9182 0.00399143 17.8068 0 17.6951C0 15.4315 0 13.1663 0 10.8996C0 10.1399 0 9.38024 0 8.62056L0.0601943 0.361312C0.0601943 0.245507 0.0601958 0.129702 0.0852778 0C0.290326 0.022622 0.483806 0.0998794 0.642098 0.222344L5.95446 3.07579L11.1665 5.85512C11.3476 5.92313 11.5066 6.03324 11.628 6.17475C10.8605 6.67503 10.0579 7.06877 9.22515 7.51346Z" fill="white"/>
</svg>
