<svg width="18" height="27" viewBox="0 0 18 27" fill="none" xmlns="http://www.w3.org/2000/svg">
<path d="M0.147608 14.6762C0.996359 15.1045 1.81875 15.5281 2.66223 15.9796C2.66223 18.3441 2.66223 20.701 2.66223 23.05C2.86256 23.1152 2.97854 22.9942 3.09979 22.9337L8.25555 20.3317L14.7609 17.0455L15.209 16.8127C15.2726 16.6338 15.2924 16.445 15.267 16.2588C15.267 13.6429 15.267 11.0316 15.267 8.41569C15.267 7.1403 15.2933 5.86957 15.3039 4.59418V4.1194C15.093 4.02631 14.977 4.15198 14.8505 4.2125C13.7118 4.77571 12.5784 5.3529 11.445 5.92077L8.63512 7.31718C8.47169 7.40096 8.29772 7.47544 8.13957 7.54526C7.23982 7.16181 6.38965 6.69363 5.60386 6.14885C9.69825 4.09148 13.7786 2.04186 17.8448 0C18.0504 0.0930939 17.9925 0.228081 17.9925 0.335138C17.9925 1.5407 17.9925 2.74627 17.9925 3.95183C17.9925 4.29163 17.9925 4.63142 17.9925 4.97121C17.9925 6.60036 17.9925 8.2295 17.9556 9.85864C17.9345 12.456 17.9169 15.0533 17.9028 17.6506V18.0835C17.634 18.265 0.606248 26.8343 0.195052 26.9926C0.130518 27.0025 0.0645341 27.0025 0 26.9926C0 26.8343 0 26.6854 0 26.5271C0 23.7591 0.0123046 20.9911 0.0369061 18.2231C0.0369061 17.2549 0.0369061 16.2868 0.0369061 15.3186C0.0170737 15.0998 0.0549637 14.8799 0.147608 14.6762Z" fill="white"/>
</svg>
