<svg width="14" height="22" viewBox="0 0 14 22" fill="none" xmlns="http://www.w3.org/2000/svg">
<path d="M0.0874134 0L0.318803 0.122721L0.611901 0.278483L9.42017 4.90882C9.4372 4.91578 9.45153 4.92729 9.46131 4.94186C9.46131 4.94186 9.46131 4.97018 9.46131 5.03154C8.8237 5.3761 8.17581 5.73954 7.48678 6.06994L5.71792 5.12594C5.13687 4.81442 4.55582 4.49818 3.96449 4.18194C3.37316 3.86569 2.82811 3.54001 2.22135 3.28985C2.18021 3.34177 2.13908 3.37009 2.13908 3.39841V13.6314L2.62757 13.9052C4.0879 14.6745 10.0064 17.7897 11.5078 18.5733C11.6339 18.6336 11.7645 18.6856 11.8986 18.729C11.8986 16.8788 11.8986 15.0757 11.8986 13.2491C12.5722 12.9187 13.9554 12.2248 13.9863 12.1965C14.0171 12.1682 13.9863 12.2484 13.9863 12.2862C13.9863 12.4325 13.9863 20.5038 13.9863 21.679C13.9863 21.7876 14.0377 21.915 13.9092 22C13.431 21.8206 0.452499 14.9766 0.0257117 14.6745V14.2969C0.0257117 12.0722 0.0171401 9.85067 0 7.63227V3.24265C0 2.44025 0 1.64257 0 0.844884L0.0874134 0Z" fill="white"/>
</svg>
