<svg width="14" height="22" viewBox="0 0 14 22" fill="none" xmlns="http://www.w3.org/2000/svg">
<path d="M13.9433 0L13.7116 0.12259L13.418 0.278184L4.58978 4.90356C4.57273 4.91051 4.55837 4.92201 4.54858 4.93656C4.54633 4.96639 4.54633 4.99632 4.54858 5.02615C5.18726 5.37034 5.84139 5.73339 6.52643 6.06344L8.29824 5.12045C8.88541 4.80926 9.46744 4.49336 10.0546 4.17745C10.6418 3.86155 11.1981 3.53622 11.8007 3.28633C11.8419 3.33819 11.8831 3.36648 11.8831 3.39477V13.6168C11.7131 13.7111 11.5586 13.8054 11.3938 13.8903L7.00029 16.2006L2.50378 18.5581C2.37656 18.6166 2.24588 18.6685 2.11233 18.7137C2.08658 16.8654 2.11233 15.0643 2.11233 13.2396C1.43245 12.9096 0.0520787 12.2165 0.0160242 12.1882C-0.0200303 12.1599 0.0160242 12.24 0.0160242 12.2778V12.7492C0.0160242 14.5567 0.0160242 16.3625 0.0160242 18.1667C0.0160242 19.336 0.0160242 20.5069 0.0160242 21.6794C0.0160242 21.7878 -0.0406359 21.9151 0.0932806 22C0.57229 21.8208 13.5673 14.9841 14 14.6824V14.3052C14 12.0829 14 9.86369 14 7.64766C14 6.18603 14 4.72439 14 3.26275V0.872267L13.9433 0Z" fill="white"/>
</svg>
