<svg width="27" height="12" viewBox="0 0 27 12" fill="none" xmlns="http://www.w3.org/2000/svg">
<path d="M18.0366 2.38608C16.5378 1.59225 15.0389 0.789242 13.54 0L0 7.16742C0.224833 7.2959 0.359733 7.3785 0.49963 7.45192L6.49519 10.6639C7.24963 11.0677 7.99408 11.4761 8.76351 11.8708C8.88342 11.935 8.99334 12.0497 9.15822 11.9763C9.24584 11.3072 9.24584 10.6309 9.15822 9.96189L3.99205 7.20872C4.80145 6.74986 5.60085 6.33688 6.38527 5.91473L8.74352 4.65745L11.1517 3.37263L13.53 2.11535L22.7931 7.06647C22.8381 7.06647 22.8631 7.13071 22.928 7.19495C22.3884 7.52992 21.8238 7.80065 21.2842 8.08973C20.7446 8.37882 20.1451 8.69084 19.5855 9.00746C19.0259 9.32407 18.4713 9.57186 17.9367 9.92518C17.9367 10.5722 17.9367 11.2054 17.9367 11.8386C17.9367 11.8799 17.9817 11.9258 18.0067 11.9671C18.4613 11.7882 26.5903 7.47486 27 7.18577C25.5011 6.36441 24.0022 5.58435 22.5033 4.79052C21.0044 3.99669 19.5355 3.17991 18.0366 2.38608Z" fill="white"/>
</svg>
