<svg width="34" height="16" viewBox="0 0 34 16" fill="none" xmlns="http://www.w3.org/2000/svg">
<path d="M17.0152 0C11.3788 3.12966 5.76274 6.25287 0.166866 9.36963C0.1056 9.40802 0.0495493 9.45354 0 9.50514C0.419691 9.81972 11.3013 15.7967 11.7918 16C11.8175 15.9379 11.8345 15.8728 11.8424 15.8064C11.8424 15.0659 11.8424 14.3206 11.8424 13.5802C11.8481 13.5007 11.8297 13.4214 11.7893 13.3519C11.7489 13.2823 11.6883 13.2254 11.6148 13.1881L11.3721 13.0623L5.48632 9.8052L4.98067 9.50514L8.01457 7.7919L10.9777 6.1464L13.9863 4.46703C14.9926 3.91047 16.0039 3.32487 17.0152 2.81186L29.0851 9.42771C26.8197 10.7247 24.5747 11.9347 22.3852 13.1833C22.3397 13.5318 22.3093 15.366 22.3498 15.7048C22.3655 15.7832 22.3909 15.8596 22.4256 15.9322L22.9768 15.6322L30.3391 11.5523L33.7017 9.68421C33.818 9.61645 33.9848 9.59226 34 9.39383L17.0152 0Z" fill="white"/>
</svg>
