<svg width="238" height="265" viewBox="0 0 238 265" fill="none" xmlns="http://www.w3.org/2000/svg">
<path d="M238 66.1549V198.818L119.224 265C109.159 259.566 99.2638 253.915 89.2836 248.4C79.3033 242.885 69.5487 237.533 59.6812 231.909L29.7688 215.282L0.307411 198.981C-0.0590935 196.481 -0.143672 70.3117 0.307411 66.2364L119.224 0L238 66.1549ZM119.224 14.3992C83.7014 34.1234 48.3477 53.7933 13.1633 73.4089C13.1633 74.0066 13.1633 74.3869 13.1633 74.7673C13.1633 113.509 13.1633 152.251 13.1633 190.993C13.1406 191.083 13.1406 191.176 13.1633 191.265C13.2579 191.456 13.3712 191.638 13.5016 191.808L39.6362 206.371L66.0246 221.069C74.9335 226.013 83.8142 230.985 92.7231 235.903C101.632 240.82 110.287 245.765 118.999 250.465C122.438 248.943 223.312 192.732 225.088 191.347C225.398 188.249 225.341 75.6367 225.088 73.3002L119.224 14.3992Z" fill="#00A75D"/>
</svg>
